<?xml version="1.0" encoding="utf-8" standalone="no"?>
<!DOCTYPE svg PUBLIC "-//W3C//DTD SVG 1.1//EN"
  "http://www.w3.org/Graphics/SVG/1.1/DTD/svg11.dtd">
<!-- Created with matplotlib (https://matplotlib.org/) -->
<svg height="1440pt" version="1.1" viewBox="0 0 1440 1440" width="1440pt" xmlns="http://www.w3.org/2000/svg" xmlns:xlink="http://www.w3.org/1999/xlink">
 <defs>
  <style type="text/css">
*{stroke-linecap:butt;stroke-linejoin:round;}
  </style>
 </defs>
 <g id="figure_1">
  <g id="patch_1">
   <path d="M 0 1440 
L 1440 1440 
L 1440 0 
L 0 0 
z
" style="fill:#ffffff;"/>
  </g>
  <g id="axes_1">
   <g id="patch_2">
    <path d="M 824.103107 903.737531 
C 853.353838 889.470997 878.605342 868.155745 897.57945 841.714821 
C 916.553558 815.273896 928.66197 784.527111 932.812274 752.248414 
C 936.962578 719.969718 933.026093 687.159925 921.357964 656.779108 
C 909.689836 626.398291 890.65184 599.38842 865.961569 578.186303 
L 787.439697 669.626526 
C 796.97912 677.818253 804.334709 688.253885 808.84285 699.991928 
C 813.35099 711.729971 814.871905 724.406482 813.268378 736.877797 
C 811.664852 749.349111 806.986602 761.228551 799.655697 771.444362 
C 792.324791 781.660174 782.568528 789.895612 771.26711 795.407683 
L 824.103107 903.737531 
z
" style="fill:#5b006f;opacity:0.5;stroke:#ffffff;stroke-linejoin:miter;"/>
   </g>
   <g id="patch_3">
    <path d="M 865.961569 578.186303 
C 844.793195 560.008522 819.992385 546.548331 793.215379 538.704623 
C 766.438373 530.860916 738.294813 528.812274 710.664173 532.695508 
C 683.033532 536.578741 656.544889 546.30544 632.967198 561.22604 
C 609.389507 576.146639 589.259571 595.921435 573.9217 619.229835 
C 558.583829 642.538235 548.387226 668.849568 544.012838 696.406718 
C 539.638451 723.963868 541.18587 752.139432 548.551759 779.051798 
C 555.917647 805.964165 568.934302 831.000611 586.73245 852.489159 
C 604.530598 873.977708 626.705021 891.429122 651.774876 903.677967 
L 704.685747 795.384669 
C 694.999667 790.652161 686.432276 783.909569 679.555719 775.607175 
C 672.679162 767.304781 667.65 757.631609 664.804089 747.233649 
C 661.958177 736.83569 661.36031 725.949676 663.050415 715.302596 
C 664.740519 704.655515 668.680116 694.489773 674.606111 685.484255 
C 680.532107 676.478736 688.309582 668.838474 697.419145 663.073697 
C 706.528707 657.30892 716.762956 653.550877 727.43843 652.050537 
C 738.113905 650.550197 748.987553 651.341718 759.333215 654.372241 
C 769.678876 657.402764 779.261007 662.603292 787.439697 669.626526 
L 865.961569 578.186303 
z
" style="fill:#03456c;opacity:0.5;stroke:#ffffff;stroke-linejoin:miter;"/>
   </g>
   <g id="patch_4">
    <path d="M 651.774876 903.677967 
C 668.637475 911.916841 686.594208 917.696498 705.096694 920.840433 
C 723.599179 923.984369 742.457128 924.460248 761.094637 922.253538 
L 746.922928 802.561594 
C 739.722072 803.414187 732.436046 803.230324 725.287359 802.015622 
C 718.138671 800.80092 711.200842 798.56787 704.685747 795.384669 
L 651.774876 903.677967 
z
" style="fill:#00522e;opacity:0.5;stroke:#ffffff;stroke-linejoin:miter;"/>
   </g>
   <g id="patch_5">
    <path d="M 761.094637 922.253538 
C 772.021862 920.959738 782.821066 918.749981 793.378215 915.647601 
C 803.935364 912.545221 814.213167 908.561177 824.103095 903.737537 
L 771.267105 795.407685 
C 767.445996 797.271364 763.475027 798.810654 759.396129 800.0093 
C 755.31723 801.207947 751.14481 802.061717 746.922928 802.561594 
L 761.094637 922.253538 
z
" style="fill:#0e0e0e;opacity:0.5;stroke:#ffffff;stroke-linejoin:miter;"/>
   </g>
   <g id="patch_6">
    <path d="M 890.637326 1040.152897 
C 917.280591 1027.158108 942.155653 1010.813939 964.658329 991.517367 
C 987.161005 972.220796 1007.107623 950.129326 1024.013704 925.779531 
L 899.341064 839.219223 
C 889.8043 852.955005 878.552362 865.416859 865.858545 876.302105 
C 853.164727 887.18735 839.132641 896.407138 824.103107 903.737531 
L 890.637326 1040.152897 
z
" style="fill:#8e017a;opacity:0.4;stroke:#ffffff;stroke-linejoin:miter;"/>
   </g>
   <g id="patch_7">
    <path d="M 1024.013704 925.779531 
C 1025.249071 924.000234 1026.467808 922.209447 1027.669755 920.407406 
C 1028.871703 918.605364 1030.056808 916.792146 1031.224917 914.967988 
L 903.408927 833.120403 
C 902.749994 834.149416 902.081473 835.172257 901.403452 836.188793 
C 900.72543 837.205329 900.037938 838.215516 899.341064 839.219223 
L 1024.013704 925.779531 
z
" style="fill:#ad017e;opacity:0.4;stroke:#ffffff;stroke-linejoin:miter;"/>
   </g>
   <g id="patch_8">
    <path d="M 1031.224917 914.967988 
C 1046.038056 891.835282 1058.06186 867.030705 1067.045304 841.072106 
C 1076.028749 815.113507 1081.908881 788.1828 1084.562938 760.842223 
L 933.497042 746.177664 
C 931.999881 761.600554 928.682884 776.792235 923.6153 791.435547 
C 918.547716 806.078859 911.765057 820.071185 903.408927 833.120403 
L 1031.224917 914.967988 
z
" style="fill:#ca208d;opacity:0.4;stroke:#ffffff;stroke-linejoin:miter;"/>
   </g>
   <g id="patch_9">
    <path d="M 1084.562938 760.842223 
C 1086.307878 742.866845 1086.651668 724.78292 1085.591194 706.754208 
C 1084.530721 688.725496 1082.069194 670.806584 1078.228906 653.159736 
L 929.923998 685.433697 
C 932.090315 695.388329 933.478868 705.496434 934.077084 715.666476 
C 934.6753 725.836519 934.481367 736.037707 933.497042 746.177664 
L 1084.562938 760.842223 
z
" style="fill:#e23e99;opacity:0.4;stroke:#ffffff;stroke-linejoin:miter;"/>
   </g>
   <g id="patch_10">
    <path d="M 1078.228906 653.159736 
C 1076.079087 643.280916 1073.500028 633.500413 1070.499063 623.846035 
C 1067.498097 614.191656 1064.078071 604.67256 1060.248707 595.315809 
L 919.781322 652.80379 
C 921.941476 658.081957 923.870721 663.451704 925.563574 668.897763 
C 927.256426 674.343823 928.71128 679.861029 929.923998 685.433697 
L 1078.228906 653.159736 
z
" style="fill:#f25d9f;opacity:0.4;stroke:#ffffff;stroke-linejoin:miter;"/>
   </g>
   <g id="patch_11">
    <path d="M 1060.248707 595.315809 
C 1059.428253 593.311093 1058.589109 591.314077 1057.731386 589.325021 
C 1056.873663 587.335966 1055.997397 585.354957 1055.102704 583.382255 
L 916.878449 646.072041 
C 917.383147 647.184848 917.877451 648.30234 918.361295 649.424371 
C 918.845138 650.546402 919.318501 651.672924 919.781322 652.80379 
L 1060.248707 595.315809 
z
" style="fill:#f87ea9;opacity:0.4;stroke:#ffffff;stroke-linejoin:miter;"/>
   </g>
   <g id="patch_12">
    <path d="M 1055.102704 583.382255 
C 1051.821866 576.148359 1048.294454 569.028847 1044.526661 562.036217 
C 1040.758867 555.043587 1036.752898 548.181934 1032.515785 541.463301 
L 904.13711 622.425452 
C 906.527276 626.21545 908.787053 630.086126 910.912475 634.030687 
C 913.037897 637.975247 915.027719 641.991382 916.878449 646.072041 
L 1055.102704 583.382255 
z
" style="fill:#fa9eb5;opacity:0.4;stroke:#ffffff;stroke-linejoin:miter;"/>
   </g>
   <g id="patch_13">
    <path d="M 1032.515785 541.463301 
C 1026.73742 532.300762 1020.534624 523.412864 1013.92764 514.828612 
C 1007.320655 506.244359 1000.316678 497.973101 992.938564 490.04183 
L 881.811497 593.418468 
C 885.97351 597.892519 889.924472 602.558357 893.651489 607.400755 
C 897.378506 612.243154 900.877519 617.25684 904.13711 622.425452 
L 1032.515785 541.463301 
z
" style="fill:#fbb6bc;opacity:0.4;stroke:#ffffff;stroke-linejoin:miter;"/>
   </g>
   <g id="patch_14">
    <path d="M 992.938564 490.04183 
C 989.987768 486.869805 986.978027 483.753128 983.910916 480.693427 
C 980.843804 477.633727 977.719854 474.631536 974.540699 471.688422 
L 871.433215 583.065264 
C 873.226585 584.725482 874.988812 586.419025 876.718978 588.14501 
C 878.449144 589.870995 880.146946 591.629121 881.811497 593.418468 
L 992.938564 490.04183 
z
" style="fill:#fccbc6;opacity:0.4;stroke:#ffffff;stroke-linejoin:miter;"/>
   </g>
   <g id="patch_15">
    <path d="M 974.540699 471.688422 
C 972.951157 470.216898 971.347917 468.760238 969.731189 467.318633 
C 968.114462 465.877029 966.484317 464.450542 964.840968 463.03936 
L 865.961572 578.186305 
C 866.888589 578.982357 867.808158 579.787042 868.720158 580.600255 
C 869.632158 581.413468 870.53655 582.235173 871.433215 583.065264 
L 974.540699 471.688422 
z
" style="fill:#fddbd7;opacity:0.4;stroke:#ffffff;stroke-linejoin:miter;"/>
   </g>
   <g id="patch_16">
    <path d="M 964.840968 463.03936 
C 925.79128 429.506471 879.787546 405.045855 830.151212 391.423552 
C 780.514878 377.80125 728.469972 375.353186 677.774107 384.256111 
L 704.026419 533.744473 
C 732.624087 528.72231 761.982752 530.103269 789.982735 537.787645 
C 817.982719 545.472021 843.933542 559.270317 865.961572 578.186305 
L 964.840968 463.03936 
z
" style="fill:#04629a;opacity:0.4;stroke:#ffffff;stroke-linejoin:miter;"/>
   </g>
   <g id="patch_17">
    <path d="M 677.774107 384.256111 
C 663.546552 386.754675 649.488259 390.136198 635.680753 394.381069 
C 621.873247 398.625941 608.343269 403.72594 595.16928 409.651493 
L 657.428825 548.070073 
C 664.860306 544.727454 672.492601 541.850531 680.28145 539.455988 
C 688.0703 537.061445 696.000619 535.153919 704.026419 533.744473 
L 677.774107 384.256111 
z
" style="fill:#056faf;opacity:0.4;stroke:#ffffff;stroke-linejoin:miter;"/>
   </g>
   <g id="patch_18">
    <path d="M 595.16928 409.651493 
C 576.719993 417.949831 559.028941 427.840237 542.297001 439.210408 
C 525.56506 450.580579 509.855799 463.387318 495.347591 477.485208 
L 601.119154 586.335246 
C 609.303271 578.38259 618.164906 571.158276 627.603436 564.744333 
C 637.041967 558.33039 647.021534 552.751187 657.428825 548.070073 
L 595.16928 409.651493 
z
" style="fill:#2383ba;opacity:0.4;stroke:#ffffff;stroke-linejoin:miter;"/>
   </g>
   <g id="patch_19">
    <path d="M 495.347591 477.485208 
C 470.445995 501.682542 449.303326 529.469123 432.622282 559.921434 
C 415.941239 590.373745 403.908697 623.150635 396.92457 657.162727 
L 545.598475 687.691795 
C 549.538239 668.505486 556.325827 650.015959 565.735647 632.837732 
C 575.145466 615.659506 587.0721 599.985024 601.119154 586.335246 
L 495.347591 477.485208 
z
" style="fill:#4295c3;opacity:0.4;stroke:#ffffff;stroke-linejoin:miter;"/>
   </g>
   <g id="patch_20">
    <path d="M 396.92457 657.162727 
C 395.907896 662.11384 394.999149 667.086504 394.198976 672.077183 
C 393.398803 677.067861 392.707394 682.075371 392.125239 687.096153 
L 542.89116 704.577317 
C 543.219555 701.745081 543.609581 698.920332 544.060961 696.105077 
C 544.512341 693.289823 545.024967 690.48473 545.598475 687.691795 
L 396.92457 657.162727 
z
" style="fill:#67a4cc;opacity:0.4;stroke:#ffffff;stroke-linejoin:miter;"/>
   </g>
   <g id="patch_21">
    <path d="M 392.125239 687.096153 
C 386.701383 733.874082 390.823218 781.269803 404.240789 826.409162 
C 417.65836 871.54852 440.09485 913.500251 470.189676 949.720334 
L 586.927509 852.724291 
C 569.950941 832.292449 557.294459 808.62737 549.725573 783.164142 
C 542.156687 757.700914 539.831549 730.964867 542.89116 704.577317 
L 392.125239 687.096153 
z
" style="fill:#88b1d4;opacity:0.4;stroke:#ffffff;stroke-linejoin:miter;"/>
   </g>
   <g id="patch_22">
    <path d="M 470.189676 949.720334 
C 474.342828 954.718785 478.635103 959.599983 483.061458 964.358193 
C 487.487813 969.116403 492.046512 973.749759 496.732198 978.252816 
L 601.900214 868.819537 
C 599.257007 866.279351 596.685433 863.665663 594.188515 860.981545 
C 591.691597 858.297427 589.270313 855.54393 586.927509 852.724291 
L 470.189676 949.720334 
z
" style="fill:#a5bddb;opacity:0.4;stroke:#ffffff;stroke-linejoin:miter;"/>
   </g>
   <g id="patch_23">
    <path d="M 496.732198 978.252816 
C 500.376527 981.755104 504.096683 985.177624 507.890022 988.517942 
C 511.683361 991.858261 515.548984 995.115586 519.484141 998.287602 
L 614.734644 880.121212 
C 612.514811 878.331869 610.334204 876.494404 608.194371 874.610121 
C 606.054539 872.725839 603.955989 870.795187 601.900214 868.819537 
L 496.732198 978.252816 
z
" style="fill:#c0c9e2;opacity:0.4;stroke:#ffffff;stroke-linejoin:miter;"/>
   </g>
   <g id="patch_24">
    <path d="M 519.484141 998.287602 
C 529.605359 1006.446023 540.175539 1014.031223 551.14502 1021.007565 
C 562.114502 1027.983908 573.46608 1034.340451 585.146422 1040.047331 
L 651.774905 903.677982 
C 645.185994 900.458716 638.78254 896.872974 632.594627 892.937601 
C 626.406714 889.002228 620.444049 884.723398 614.734644 880.121212 
L 519.484141 998.287602 
z
" style="fill:#d6d6e9;opacity:0.4;stroke:#ffffff;stroke-linejoin:miter;"/>
   </g>
   <g id="patch_25">
    <path d="M 585.146422 1040.047331 
C 604.62269 1049.56321 624.94509 1057.239593 645.848807 1062.976453 
C 666.752525 1068.713313 688.146367 1072.485622 709.751558 1074.244225 
L 722.064981 922.968537 
C 709.877438 921.976505 697.809116 919.848536 686.017276 916.612358 
C 674.225435 913.376181 662.761518 909.045913 651.774905 903.677982 
L 585.146422 1040.047331 
z
" style="fill:#0d733c;opacity:0.4;stroke:#ffffff;stroke-linejoin:miter;"/>
   </g>
   <g id="patch_26">
    <path d="M 709.751558 1074.244225 
C 721.268354 1075.181661 732.824678 1075.545231 744.377625 1075.333588 
C 755.930571 1075.121944 767.465825 1074.335347 778.940558 1072.976719 
L 761.094674 922.253534 
C 754.621748 923.01994 748.114681 923.46366 741.597634 923.583049 
C 735.080587 923.702438 728.561635 923.497347 722.064981 922.968537 
L 709.751558 1074.244225 
z
" style="fill:#228343;opacity:0.4;stroke:#ffffff;stroke-linejoin:miter;"/>
   </g>
   <g id="patch_27">
    <path d="M 778.940558 1072.976719 
C 798.311547 1070.683161 817.455591 1066.76586 836.170536 1061.266183 
C 854.885481 1055.766506 873.105221 1048.703878 890.637364 1040.152878 
L 824.103128 903.737521 
C 814.213202 908.561162 803.9354 912.545208 793.378251 915.647591 
C 782.821103 918.749973 772.021898 920.959732 761.094674 922.253534 
L 778.940558 1072.976719 
z
" style="fill:#363636;opacity:0.4;stroke:#ffffff;stroke-linejoin:miter;"/>
   </g>
   <g id="patch_28">
    <path d="M 1148.688 727.2 
C 1148.688 658.93723 1131.66849 591.739455 1099.174431 531.706615 
C 1066.680372 471.673774 1019.725671 420.679062 962.572683 383.351569 
C 905.419695 346.024076 839.851753 323.528525 771.820849 317.906971 
C 703.789946 312.285417 635.418834 323.713267 572.913964 351.153149 
C 510.409095 378.59303 455.720796 421.188742 413.813447 475.073618 
C 371.906099 528.958494 344.087327 592.451177 332.882408 659.788058 
C 321.677489 727.124939 327.436046 796.204919 349.635342 860.757201 
C 371.834638 925.309482 409.781992 983.319852 460.032699 1029.522366 
L 496.289303 990.089014 
C 452.593037 949.912915 419.595337 899.469115 400.291602 843.336696 
C 380.987866 787.204278 375.980425 727.134729 385.723833 668.58092 
C 395.467241 610.02711 419.657477 554.816082 456.09865 507.959668 
C 492.539823 461.103254 540.094866 424.063505 594.446926 400.202738 
C 648.798986 376.341972 708.252127 366.40471 767.409434 371.293018 
C 826.566742 376.181326 883.582343 395.742675 933.280594 428.201364 
C 982.978844 460.660054 1023.809019 505.003282 1052.064723 557.205752 
C 1080.320426 609.408222 1095.12 667.84107 1095.12 727.2 
L 1148.688 727.2 
z
" style="fill:#ff4500;opacity:0.45;stroke:#ffffff;stroke-linejoin:miter;"/>
   </g>
   <g id="patch_29">
    <path d="M 460.032699 1029.522366 
C 477.145489 1045.256551 495.56336 1059.509376 515.087773 1072.127199 
C 534.612187 1084.745022 555.172733 1095.682341 576.547775 1104.821255 
L 597.606761 1055.566309 
C 579.019767 1047.619427 561.141032 1038.108715 544.163281 1027.136695 
C 527.185531 1016.164675 511.16999 1003.770914 496.289303 990.089014 
L 460.032699 1029.522366 
z
" style="fill:#ffa500;opacity:0.45;stroke:#ffffff;stroke-linejoin:miter;"/>
   </g>
   <g id="patch_30">
    <path d="M 576.547775 1104.821255 
C 578.24705 1105.547781 579.951209 1106.262829 581.660137 1106.96635 
C 583.369065 1107.669871 585.082722 1108.361849 586.800991 1109.042236 
L 606.522601 1059.236727 
C 605.028454 1058.645086 603.538317 1058.043366 602.052293 1057.431609 
C 600.566269 1056.819851 599.084391 1056.198071 597.606761 1055.566309 
L 576.547775 1104.821255 
z
" style="fill:#ff7f50;opacity:0.45;stroke:#ffffff;stroke-linejoin:miter;"/>
   </g>
   <g id="patch_31">
    <path d="M 586.800991 1109.042236 
C 649.085733 1133.705278 716.469202 1142.758314 783.054817 1135.409134 
C 849.640433 1128.059953 913.427585 1104.529366 968.8344 1066.876483 
C 1024.241215 1029.2236 1069.602956 978.579728 1100.950117 919.376602 
C 1132.297277 860.173475 1148.688011 794.189892 1148.688 727.199933 
L 1095.12 727.199941 
C 1095.12001 785.45208 1080.867198 842.829109 1053.608797 894.310088 
C 1026.350396 945.791068 986.905404 989.829218 938.725565 1022.570855 
C 890.545726 1055.312492 835.078637 1075.773872 777.178102 1082.164464 
C 719.277567 1088.555056 660.683246 1080.682851 606.522601 1059.236727 
L 586.800991 1109.042236 
z
" style="fill:#008080;opacity:0.45;stroke:#ffffff;stroke-linejoin:miter;"/>
   </g>
   <g id="matplotlib.axis_1"/>
   <g id="matplotlib.axis_2"/>
  </g>
 </g>
</svg>
