<?xml version="1.0" encoding="utf-8" standalone="no"?>
<!DOCTYPE svg PUBLIC "-//W3C//DTD SVG 1.1//EN"
  "http://www.w3.org/Graphics/SVG/1.1/DTD/svg11.dtd">
<!-- Created with matplotlib (https://matplotlib.org/) -->
<svg height="1440pt" version="1.1" viewBox="0 0 1440 1440" width="1440pt" xmlns="http://www.w3.org/2000/svg" xmlns:xlink="http://www.w3.org/1999/xlink">
 <defs>
  <style type="text/css">
*{stroke-linecap:butt;stroke-linejoin:round;}
  </style>
 </defs>
 <g id="figure_1">
  <g id="patch_1">
   <path d="M 0 1440 
L 1440 1440 
L 1440 0 
L 0 0 
z
" style="fill:#ffffff;"/>
  </g>
  <g id="axes_1">
   <g id="patch_2">
    <path d="M 824.103107 903.737531 
C 853.353838 889.470997 878.605342 868.155745 897.57945 841.714821 
C 916.553558 815.273896 928.66197 784.527111 932.812274 752.248414 
C 936.962578 719.969718 933.026093 687.159925 921.357964 656.779108 
C 909.689836 626.398291 890.65184 599.38842 865.961569 578.186303 
L 787.439697 669.626526 
C 796.97912 677.818253 804.334709 688.253885 808.84285 699.991928 
C 813.35099 711.729971 814.871905 724.406482 813.268378 736.877797 
C 811.664852 749.349111 806.986602 761.228551 799.655697 771.444362 
C 792.324791 781.660174 782.568528 789.895612 771.26711 795.407683 
L 824.103107 903.737531 
z
" style="fill:#5b006f;opacity:0.5;stroke:#ffffff;stroke-linejoin:miter;"/>
   </g>
   <g id="patch_3">
    <path d="M 865.961569 578.186303 
C 844.793195 560.008522 819.992385 546.548331 793.215379 538.704623 
C 766.438373 530.860916 738.294813 528.812274 710.664173 532.695508 
C 683.033532 536.578741 656.544889 546.30544 632.967198 561.22604 
C 609.389507 576.146639 589.259571 595.921435 573.9217 619.229835 
C 558.583829 642.538235 548.387226 668.849568 544.012838 696.406718 
C 539.638451 723.963868 541.18587 752.139432 548.551759 779.051798 
C 555.917647 805.964165 568.934302 831.000611 586.73245 852.489159 
C 604.530598 873.977708 626.705021 891.429122 651.774876 903.677967 
L 704.685747 795.384669 
C 694.999667 790.652161 686.432276 783.909569 679.555719 775.607175 
C 672.679162 767.304781 667.65 757.631609 664.804089 747.233649 
C 661.958177 736.83569 661.36031 725.949676 663.050415 715.302596 
C 664.740519 704.655515 668.680116 694.489773 674.606111 685.484255 
C 680.532107 676.478736 688.309582 668.838474 697.419145 663.073697 
C 706.528707 657.30892 716.762956 653.550877 727.43843 652.050537 
C 738.113905 650.550197 748.987553 651.341718 759.333215 654.372241 
C 769.678876 657.402764 779.261007 662.603292 787.439697 669.626526 
L 865.961569 578.186303 
z
" style="fill:#03456c;opacity:0.5;stroke:#ffffff;stroke-linejoin:miter;"/>
   </g>
   <g id="patch_4">
    <path d="M 651.774876 903.677967 
C 668.637475 911.916841 686.594208 917.696498 705.096694 920.840433 
C 723.599179 923.984369 742.457128 924.460248 761.094637 922.253538 
L 746.922928 802.561594 
C 739.722072 803.414187 732.436046 803.230324 725.287359 802.015622 
C 718.138671 800.80092 711.200842 798.56787 704.685747 795.384669 
L 651.774876 903.677967 
z
" style="fill:#00522e;opacity:0.5;stroke:#ffffff;stroke-linejoin:miter;"/>
   </g>
   <g id="patch_5">
    <path d="M 761.094637 922.253538 
C 772.021862 920.959738 782.821066 918.749981 793.378215 915.647601 
C 803.935364 912.545221 814.213167 908.561177 824.103095 903.737537 
L 771.267105 795.407685 
C 767.445996 797.271364 763.475027 798.810654 759.396129 800.0093 
C 755.31723 801.207947 751.14481 802.061717 746.922928 802.561594 
L 761.094637 922.253538 
z
" style="fill:#0e0e0e;opacity:0.5;stroke:#ffffff;stroke-linejoin:miter;"/>
   </g>
   <g id="patch_6">
    <path d="M 890.637326 1040.152897 
C 917.280591 1027.158108 942.155653 1010.813939 964.658329 991.517367 
C 987.161005 972.220796 1007.107623 950.129326 1024.013704 925.779531 
L 899.341064 839.219223 
C 889.8043 852.955005 878.552362 865.416859 865.858545 876.302105 
C 853.164727 887.18735 839.132641 896.407138 824.103107 903.737531 
L 890.637326 1040.152897 
z
" style="fill:#8e017a;opacity:0.4;stroke:#ffffff;stroke-linejoin:miter;"/>
   </g>
   <g id="patch_7">
    <path d="M 1024.013704 925.779531 
C 1025.249071 924.000234 1026.467808 922.209447 1027.669755 920.407406 
C 1028.871703 918.605364 1030.056808 916.792146 1031.224917 914.967988 
L 903.408927 833.120403 
C 902.749994 834.149416 902.081473 835.172257 901.403452 836.188793 
C 900.72543 837.205329 900.037938 838.215516 899.341064 839.219223 
L 1024.013704 925.779531 
z
" style="fill:#ad017e;opacity:0.4;stroke:#ffffff;stroke-linejoin:miter;"/>
   </g>
   <g id="patch_8">
    <path d="M 1031.224917 914.967988 
C 1046.038056 891.835282 1058.06186 867.030705 1067.045304 841.072106 
C 1076.028749 815.113507 1081.908881 788.1828 1084.562938 760.842223 
L 933.497042 746.177664 
C 931.999881 761.600554 928.682884 776.792235 923.6153 791.435547 
C 918.547716 806.078859 911.765057 820.071185 903.408927 833.120403 
L 1031.224917 914.967988 
z
" style="fill:#ca208d;opacity:0.4;stroke:#ffffff;stroke-linejoin:miter;"/>
   </g>
   <g id="patch_9">
    <path d="M 1084.562938 760.842223 
C 1086.307878 742.866845 1086.651668 724.78292 1085.591194 706.754208 
C 1084.530721 688.725496 1082.069194 670.806584 1078.228906 653.159736 
L 929.923998 685.433697 
C 932.090315 695.388329 933.478868 705.496434 934.077084 715.666476 
C 934.6753 725.836519 934.481367 736.037707 933.497042 746.177664 
L 1084.562938 760.842223 
z
" style="fill:#e23e99;opacity:0.4;stroke:#ffffff;stroke-linejoin:miter;"/>
   </g>
   <g id="patch_10">
    <path d="M 1078.228906 653.159736 
C 1076.079087 643.280916 1073.500028 633.500413 1070.499063 623.846035 
C 1067.498097 614.191656 1064.078071 604.67256 1060.248707 595.315809 
L 919.781322 652.80379 
C 921.941476 658.081957 923.870721 663.451704 925.563574 668.897763 
C 927.256426 674.343823 928.71128 679.861029 929.923998 685.433697 
L 1078.228906 653.159736 
z
" style="fill:#f25d9f;opacity:0.4;stroke:#ffffff;stroke-linejoin:miter;"/>
   </g>
   <g id="patch_11">
    <path d="M 1060.248707 595.315809 
C 1059.428253 593.311093 1058.589109 591.314077 1057.731386 589.325021 
C 1056.873663 587.335966 1055.997397 585.354957 1055.102704 583.382255 
L 916.878449 646.072041 
C 917.383147 647.184848 917.877451 648.30234 918.361295 649.424371 
C 918.845138 650.546402 919.318501 651.672924 919.781322 652.80379 
L 1060.248707 595.315809 
z
" style="fill:#f87ea9;opacity:0.4;stroke:#ffffff;stroke-linejoin:miter;"/>
   </g>
   <g id="patch_12">
    <path d="M 1055.102704 583.382255 
C 1051.821866 576.148359 1048.294454 569.028847 1044.526661 562.036217 
C 1040.758867 555.043587 1036.752898 548.181934 1032.515785 541.463301 
L 904.13711 622.425452 
C 906.527276 626.21545 908.787053 630.086126 910.912475 634.030687 
C 913.037897 637.975247 915.027719 641.991382 916.878449 646.072041 
L 1055.102704 583.382255 
z
" style="fill:#fa9eb5;opacity:0.4;stroke:#ffffff;stroke-linejoin:miter;"/>
   </g>
   <g id="patch_13">
    <path d="M 1032.515785 541.463301 
C 1026.73742 532.300762 1020.534624 523.412864 1013.92764 514.828612 
C 1007.320655 506.244359 1000.316678 497.973101 992.938564 490.04183 
L 881.811497 593.418468 
C 885.97351 597.892519 889.924472 602.558357 893.651489 607.400755 
C 897.378506 612.243154 900.877519 617.25684 904.13711 622.425452 
L 1032.515785 541.463301 
z
" style="fill:#fbb6bc;opacity:0.4;stroke:#ffffff;stroke-linejoin:miter;"/>
   </g>
   <g id="patch_14">
    <path d="M 992.938564 490.04183 
C 989.987768 486.869805 986.978027 483.753128 983.910916 480.693427 
C 980.843804 477.633727 977.719854 474.631536 974.540699 471.688422 
L 871.433215 583.065264 
C 873.226585 584.725482 874.988812 586.419025 876.718978 588.14501 
C 878.449144 589.870995 880.146946 591.629121 881.811497 593.418468 
L 992.938564 490.04183 
z
" style="fill:#fccbc6;opacity:0.4;stroke:#ffffff;stroke-linejoin:miter;"/>
   </g>
   <g id="patch_15">
    <path d="M 974.540699 471.688422 
C 972.951157 470.216898 971.347917 468.760238 969.731189 467.318633 
C 968.114462 465.877029 966.484317 464.450542 964.840968 463.03936 
L 865.961572 578.186305 
C 866.888589 578.982357 867.808158 579.787042 868.720158 580.600255 
C 869.632158 581.413468 870.53655 582.235173 871.433215 583.065264 
L 974.540699 471.688422 
z
" style="fill:#fddbd7;opacity:0.4;stroke:#ffffff;stroke-linejoin:miter;"/>
   </g>
   <g id="patch_16">
    <path d="M 964.840968 463.03936 
C 925.79128 429.506471 879.787546 405.045855 830.151212 391.423552 
C 780.514878 377.80125 728.469972 375.353186 677.774107 384.256111 
L 704.026419 533.744473 
C 732.624087 528.72231 761.982752 530.103269 789.982735 537.787645 
C 817.982719 545.472021 843.933542 559.270317 865.961572 578.186305 
L 964.840968 463.03936 
z
" style="fill:#04629a;opacity:0.4;stroke:#ffffff;stroke-linejoin:miter;"/>
   </g>
   <g id="patch_17">
    <path d="M 677.774107 384.256111 
C 663.546552 386.754675 649.488259 390.136198 635.680753 394.381069 
C 621.873247 398.625941 608.343269 403.72594 595.16928 409.651493 
L 657.428825 548.070073 
C 664.860306 544.727454 672.492601 541.850531 680.28145 539.455988 
C 688.0703 537.061445 696.000619 535.153919 704.026419 533.744473 
L 677.774107 384.256111 
z
" style="fill:#056faf;opacity:0.4;stroke:#ffffff;stroke-linejoin:miter;"/>
   </g>
   <g id="patch_18">
    <path d="M 595.16928 409.651493 
C 576.719993 417.949831 559.028941 427.840237 542.297001 439.210408 
C 525.56506 450.580579 509.855799 463.387318 495.347591 477.485208 
L 601.119154 586.335246 
C 609.303271 578.38259 618.164906 571.158276 627.603436 564.744333 
C 637.041967 558.33039 647.021534 552.751187 657.428825 548.070073 
L 595.16928 409.651493 
z
" style="fill:#2383ba;opacity:0.4;stroke:#ffffff;stroke-linejoin:miter;"/>
   </g>
   <g id="patch_19">
    <path d="M 495.347591 477.485208 
C 470.445995 501.682542 449.303326 529.469123 432.622282 559.921434 
C 415.941239 590.373745 403.908697 623.150635 396.92457 657.162727 
L 545.598475 687.691795 
C 549.538239 668.505486 556.325827 650.015959 565.735647 632.837732 
C 575.145466 615.659506 587.0721 599.985024 601.119154 586.335246 
L 495.347591 477.485208 
z
" style="fill:#4295c3;opacity:0.4;stroke:#ffffff;stroke-linejoin:miter;"/>
   </g>
   <g id="patch_20">
    <path d="M 396.92457 657.162727 
C 395.907896 662.11384 394.999149 667.086504 394.198976 672.077183 
C 393.398803 677.067861 392.707394 682.075371 392.125239 687.096153 
L 542.89116 704.577317 
C 543.219555 701.745081 543.609581 698.920332 544.060961 696.105077 
C 544.512341 693.289823 545.024967 690.48473 545.598475 687.691795 
L 396.92457 657.162727 
z
" style="fill:#67a4cc;opacity:0.4;stroke:#ffffff;stroke-linejoin:miter;"/>
   </g>
   <g id="patch_21">
    <path d="M 392.125239 687.096153 
C 386.701383 733.874082 390.823218 781.269803 404.240789 826.409162 
C 417.65836 871.54852 440.09485 913.500251 470.189676 949.720334 
L 586.927509 852.724291 
C 569.950941 832.292449 557.294459 808.62737 549.725573 783.164142 
C 542.156687 757.700914 539.831549 730.964867 542.89116 704.577317 
L 392.125239 687.096153 
z
" style="fill:#88b1d4;opacity:0.4;stroke:#ffffff;stroke-linejoin:miter;"/>
   </g>
   <g id="patch_22">
    <path d="M 470.189676 949.720334 
C 474.342828 954.718785 478.635103 959.599983 483.061458 964.358193 
C 487.487813 969.116403 492.046512 973.749759 496.732198 978.252816 
L 601.900214 868.819537 
C 599.257007 866.279351 596.685433 863.665663 594.188515 860.981545 
C 591.691597 858.297427 589.270313 855.54393 586.927509 852.724291 
L 470.189676 949.720334 
z
" style="fill:#a5bddb;opacity:0.4;stroke:#ffffff;stroke-linejoin:miter;"/>
   </g>
   <g id="patch_23">
    <path d="M 496.732198 978.252816 
C 500.376527 981.755104 504.096683 985.177624 507.890022 988.517942 
C 511.683361 991.858261 515.548984 995.115586 519.484141 998.287602 
L 614.734644 880.121212 
C 612.514811 878.331869 610.334204 876.494404 608.194371 874.610121 
C 606.054539 872.725839 603.955989 870.795187 601.900214 868.819537 
L 496.732198 978.252816 
z
" style="fill:#c0c9e2;opacity:0.4;stroke:#ffffff;stroke-linejoin:miter;"/>
   </g>
   <g id="patch_24">
    <path d="M 519.484141 998.287602 
C 529.605359 1006.446023 540.175539 1014.031223 551.14502 1021.007565 
C 562.114502 1027.983908 573.46608 1034.340451 585.146422 1040.047331 
L 651.774905 903.677982 
C 645.185994 900.458716 638.78254 896.872974 632.594627 892.937601 
C 626.406714 889.002228 620.444049 884.723398 614.734644 880.121212 
L 519.484141 998.287602 
z
" style="fill:#d6d6e9;opacity:0.4;stroke:#ffffff;stroke-linejoin:miter;"/>
   </g>
   <g id="patch_25">
    <path d="M 585.146422 1040.047331 
C 604.62269 1049.56321 624.94509 1057.239593 645.848807 1062.976453 
C 666.752525 1068.713313 688.146367 1072.485622 709.751558 1074.244225 
L 722.064981 922.968537 
C 709.877438 921.976505 697.809116 919.848536 686.017276 916.612358 
C 674.225435 913.376181 662.761518 909.045913 651.774905 903.677982 
L 585.146422 1040.047331 
z
" style="fill:#0d733c;opacity:0.4;stroke:#ffffff;stroke-linejoin:miter;"/>
   </g>
   <g id="patch_26">
    <path d="M 709.751558 1074.244225 
C 721.268354 1075.181661 732.824678 1075.545231 744.377625 1075.333588 
C 755.930571 1075.121944 767.465825 1074.335347 778.940558 1072.976719 
L 761.094674 922.253534 
C 754.621748 923.01994 748.114681 923.46366 741.597634 923.583049 
C 735.080587 923.702438 728.561635 923.497347 722.064981 922.968537 
L 709.751558 1074.244225 
z
" style="fill:#228343;opacity:0.4;stroke:#ffffff;stroke-linejoin:miter;"/>
   </g>
   <g id="patch_27">
    <path d="M 778.940558 1072.976719 
C 798.311547 1070.683161 817.455591 1066.76586 836.170536 1061.266183 
C 854.885481 1055.766506 873.105221 1048.703878 890.637364 1040.152878 
L 824.103128 903.737521 
C 814.213202 908.561162 803.9354 912.545208 793.378251 915.647591 
C 782.821103 918.749973 772.021898 920.959732 761.094674 922.253534 
L 778.940558 1072.976719 
z
" style="fill:#363636;opacity:0.4;stroke:#ffffff;stroke-linejoin:miter;"/>
   </g>
   <g id="patch_28">
    <path d="M 1148.688 727.2 
C 1148.688 658.93723 1131.66849 591.739455 1099.174431 531.706615 
C 1066.680372 471.673774 1019.725671 420.679062 962.572683 383.351569 
C 905.419695 346.024076 839.851753 323.528525 771.820849 317.906971 
C 703.789946 312.285417 635.418834 323.713267 572.913964 351.153149 
C 510.409095 378.59303 455.720796 421.188742 413.813447 475.073618 
C 371.906099 528.958494 344.087327 592.451177 332.882408 659.788058 
C 321.677489 727.124939 327.436046 796.204919 349.635342 860.757201 
C 371.834638 925.309482 409.781992 983.319852 460.032699 1029.522366 
L 496.289303 990.089014 
C 452.593037 949.912915 419.595337 899.469115 400.291602 843.336696 
C 380.987866 787.204278 375.980425 727.134729 385.723833 668.58092 
C 395.467241 610.02711 419.657477 554.816082 456.09865 507.959668 
C 492.539823 461.103254 540.094866 424.063505 594.446926 400.202738 
C 648.798986 376.341972 708.252127 366.40471 767.409434 371.293018 
C 826.566742 376.181326 883.582343 395.742675 933.280594 428.201364 
C 982.978844 460.660054 1023.809019 505.003282 1052.064723 557.205752 
C 1080.320426 609.408222 1095.12 667.84107 1095.12 727.2 
L 1148.688 727.2 
z
" style="fill:#ff4500;opacity:0.45;stroke:#ffffff;stroke-linejoin:miter;"/>
   </g>
   <g id="patch_29">
    <path d="M 460.032699 1029.522366 
C 477.145489 1045.256551 495.56336 1059.509376 515.087773 1072.127199 
C 534.612187 1084.745022 555.172733 1095.682341 576.547775 1104.821255 
L 597.606761 1055.566309 
C 579.019767 1047.619427 561.141032 1038.108715 544.163281 1027.136695 
C 527.185531 1016.164675 511.16999 1003.770914 496.289303 990.089014 
L 460.032699 1029.522366 
z
" style="fill:#ffa500;opacity:0.45;stroke:#ffffff;stroke-linejoin:miter;"/>
   </g>
   <g id="patch_30">
    <path d="M 576.547775 1104.821255 
C 578.24705 1105.547781 579.951209 1106.262829 581.660137 1106.96635 
C 583.369065 1107.669871 585.082722 1108.361849 586.800991 1109.042236 
L 606.522601 1059.236727 
C 605.028454 1058.645086 603.538317 1058.043366 602.052293 1057.431609 
C 600.566269 1056.819851 599.084391 1056.198071 597.606761 1055.566309 
L 576.547775 1104.821255 
z
" style="fill:#ff7f50;opacity:0.45;stroke:#ffffff;stroke-linejoin:miter;"/>
   </g>
   <g id="patch_31">
    <path d="M 586.800991 1109.042236 
C 649.085733 1133.705278 716.469202 1142.758314 783.054817 1135.409134 
C 849.640433 1128.059953 913.427585 1104.529366 968.8344 1066.876483 
C 1024.241215 1029.2236 1069.602956 978.579728 1100.950117 919.376602 
C 1132.297277 860.173475 1148.688011 794.189892 1148.688 727.199933 
L 1095.12 727.199941 
C 1095.12001 785.45208 1080.867198 842.829109 1053.608797 894.310088 
C 1026.350396 945.791068 986.905404 989.829218 938.725565 1022.570855 
C 890.545726 1055.312492 835.078637 1075.773872 777.178102 1082.164464 
C 719.277567 1088.555056 660.683246 1080.682851 606.522601 1059.236727 
L 586.800991 1109.042236 
z
" style="fill:#008080;opacity:0.45;stroke:#ffffff;stroke-linejoin:miter;"/>
   </g>
   <g id="matplotlib.axis_1"/>
   <g id="matplotlib.axis_2"/>
   <g id="text_1">
    <!-- SP: 159 -->
    <defs>
     <path d="M 59.90625 70.609375 
L 59.90625 55.171875 
Q 53.90625 57.859375 48.1875 59.21875 
Q 42.484375 60.59375 37.40625 60.59375 
Q 30.671875 60.59375 27.4375 58.734375 
Q 24.21875 56.890625 24.21875 52.984375 
Q 24.21875 50.046875 26.390625 48.40625 
Q 28.5625 46.78125 34.28125 45.609375 
L 42.28125 44 
Q 54.4375 41.546875 59.5625 36.5625 
Q 64.703125 31.59375 64.703125 22.40625 
Q 64.703125 10.359375 57.546875 4.46875 
Q 50.390625 -1.421875 35.6875 -1.421875 
Q 28.765625 -1.421875 21.78125 -0.09375 
Q 14.796875 1.21875 7.8125 3.8125 
L 7.8125 19.671875 
Q 14.796875 15.96875 21.3125 14.078125 
Q 27.828125 12.203125 33.890625 12.203125 
Q 40.046875 12.203125 43.3125 14.25 
Q 46.578125 16.3125 46.578125 20.125 
Q 46.578125 23.53125 44.359375 25.390625 
Q 42.140625 27.25 35.5 28.71875 
L 28.21875 30.328125 
Q 17.28125 32.671875 12.21875 37.796875 
Q 7.171875 42.921875 7.171875 51.609375 
Q 7.171875 62.5 14.203125 68.359375 
Q 21.234375 74.21875 34.421875 74.21875 
Q 40.4375 74.21875 46.78125 73.3125 
Q 53.125 72.40625 59.90625 70.609375 
z
" id="DejaVuSans-Bold-83"/>
     <path d="M 9.1875 72.90625 
L 40.375 72.90625 
Q 54.296875 72.90625 61.734375 66.71875 
Q 69.1875 60.546875 69.1875 49.125 
Q 69.1875 37.640625 61.734375 31.46875 
Q 54.296875 25.296875 40.375 25.296875 
L 27.984375 25.296875 
L 27.984375 0 
L 9.1875 0 
z
M 27.984375 59.28125 
L 27.984375 38.921875 
L 38.375 38.921875 
Q 43.84375 38.921875 46.828125 41.578125 
Q 49.8125 44.234375 49.8125 49.125 
Q 49.8125 54 46.828125 56.640625 
Q 43.84375 59.28125 38.375 59.28125 
z
" id="DejaVuSans-Bold-80"/>
     <path d="M 11.1875 54.6875 
L 28.8125 54.6875 
L 28.8125 35.796875 
L 11.1875 35.796875 
z
M 11.1875 18.890625 
L 28.8125 18.890625 
L 28.8125 0 
L 11.1875 0 
z
" id="DejaVuSans-Bold-58"/>
     <path id="DejaVuSans-Bold-32"/>
     <path d="M 11.71875 12.984375 
L 28.328125 12.984375 
L 28.328125 60.109375 
L 11.28125 56.59375 
L 11.28125 69.390625 
L 28.21875 72.90625 
L 46.09375 72.90625 
L 46.09375 12.984375 
L 62.703125 12.984375 
L 62.703125 0 
L 11.71875 0 
z
" id="DejaVuSans-Bold-49"/>
     <path d="M 10.59375 72.90625 
L 57.328125 72.90625 
L 57.328125 59.078125 
L 25.59375 59.078125 
L 25.59375 47.796875 
Q 27.734375 48.390625 29.90625 48.703125 
Q 32.078125 49.03125 34.421875 49.03125 
Q 47.75 49.03125 55.171875 42.359375 
Q 62.59375 35.6875 62.59375 23.78125 
Q 62.59375 11.96875 54.515625 5.265625 
Q 46.4375 -1.421875 32.078125 -1.421875 
Q 25.875 -1.421875 19.796875 -0.21875 
Q 13.71875 0.984375 7.71875 3.421875 
L 7.71875 18.21875 
Q 13.671875 14.796875 19.015625 13.078125 
Q 24.359375 11.375 29.109375 11.375 
Q 35.9375 11.375 39.859375 14.71875 
Q 43.796875 18.0625 43.796875 23.78125 
Q 43.796875 29.546875 39.859375 32.859375 
Q 35.9375 36.1875 29.109375 36.1875 
Q 25.046875 36.1875 20.453125 35.125 
Q 15.875 34.078125 10.59375 31.890625 
z
" id="DejaVuSans-Bold-53"/>
     <path d="M 10.015625 1.609375 
L 10.015625 15.09375 
Q 14.5 12.984375 18.59375 11.9375 
Q 22.703125 10.890625 26.703125 10.890625 
Q 35.109375 10.890625 39.796875 15.546875 
Q 44.484375 20.21875 45.3125 29.390625 
Q 42 26.953125 38.234375 25.734375 
Q 34.46875 24.515625 30.078125 24.515625 
Q 18.890625 24.515625 12.03125 31.03125 
Q 5.171875 37.546875 5.171875 48.1875 
Q 5.171875 59.96875 12.8125 67.046875 
Q 20.453125 74.125 33.296875 74.125 
Q 47.5625 74.125 55.375 64.5 
Q 63.1875 54.890625 63.1875 37.3125 
Q 63.1875 19.234375 54.046875 8.90625 
Q 44.921875 -1.421875 29 -1.421875 
Q 23.875 -1.421875 19.1875 -0.65625 
Q 14.5 0.09375 10.015625 1.609375 
z
M 33.203125 36.71875 
Q 38.140625 36.71875 40.625 39.90625 
Q 43.109375 43.109375 43.109375 49.515625 
Q 43.109375 55.859375 40.625 59.078125 
Q 38.140625 62.3125 33.203125 62.3125 
Q 28.265625 62.3125 25.78125 59.078125 
Q 23.296875 55.859375 23.296875 49.515625 
Q 23.296875 43.109375 25.78125 39.90625 
Q 28.265625 36.71875 33.203125 36.71875 
z
" id="DejaVuSans-Bold-57"/>
    </defs>
    <g transform="translate(843.888201 744.987943)rotate(-352.673269)scale(0.15 -0.15)">
     <use xlink:href="#DejaVuSans-Bold-83"/>
     <use x="72.021484" xlink:href="#DejaVuSans-Bold-80"/>
     <use x="145.3125" xlink:href="#DejaVuSans-Bold-58"/>
     <use x="185.302734" xlink:href="#DejaVuSans-Bold-32"/>
     <use x="220.117188" xlink:href="#DejaVuSans-Bold-49"/>
     <use x="289.697266" xlink:href="#DejaVuSans-Bold-53"/>
     <use x="359.277344" xlink:href="#DejaVuSans-Bold-57"/>
    </g>
   </g>
   <g id="text_2">
    <!-- PL: 273 -->
    <defs>
     <path d="M 9.1875 72.90625 
L 27.984375 72.90625 
L 27.984375 14.203125 
L 60.984375 14.203125 
L 60.984375 0 
L 9.1875 0 
z
" id="DejaVuSans-Bold-76"/>
     <path d="M 28.8125 13.8125 
L 60.890625 13.8125 
L 60.890625 0 
L 7.90625 0 
L 7.90625 13.8125 
L 34.515625 37.3125 
Q 38.09375 40.53125 39.796875 43.609375 
Q 41.5 46.6875 41.5 50 
Q 41.5 55.125 38.0625 58.25 
Q 34.625 61.375 28.90625 61.375 
Q 24.515625 61.375 19.28125 59.5 
Q 14.0625 57.625 8.109375 53.90625 
L 8.109375 69.921875 
Q 14.453125 72.015625 20.65625 73.109375 
Q 26.859375 74.21875 32.8125 74.21875 
Q 45.90625 74.21875 53.15625 68.453125 
Q 60.40625 62.703125 60.40625 52.390625 
Q 60.40625 46.4375 57.328125 41.28125 
Q 54.25 36.140625 44.390625 27.484375 
z
" id="DejaVuSans-Bold-50"/>
     <path d="M 6.6875 72.90625 
L 61.625 72.90625 
L 61.625 62.3125 
L 33.203125 0 
L 14.890625 0 
L 41.796875 59.078125 
L 6.6875 59.078125 
z
" id="DejaVuSans-Bold-55"/>
     <path d="M 46.578125 39.3125 
Q 53.953125 37.40625 57.78125 32.6875 
Q 61.625 27.984375 61.625 20.703125 
Q 61.625 9.859375 53.3125 4.21875 
Q 45.015625 -1.421875 29.109375 -1.421875 
Q 23.484375 -1.421875 17.84375 -0.515625 
Q 12.203125 0.390625 6.6875 2.203125 
L 6.6875 16.703125 
Q 11.96875 14.0625 17.15625 12.71875 
Q 22.359375 11.375 27.390625 11.375 
Q 34.859375 11.375 38.84375 13.953125 
Q 42.828125 16.546875 42.828125 21.390625 
Q 42.828125 26.375 38.75 28.9375 
Q 34.671875 31.5 26.703125 31.5 
L 19.1875 31.5 
L 19.1875 43.609375 
L 27.09375 43.609375 
Q 34.1875 43.609375 37.640625 45.828125 
Q 41.109375 48.046875 41.109375 52.59375 
Q 41.109375 56.78125 37.734375 59.078125 
Q 34.375 61.375 28.21875 61.375 
Q 23.6875 61.375 19.046875 60.34375 
Q 14.40625 59.328125 9.8125 57.328125 
L 9.8125 71.09375 
Q 15.375 72.65625 20.84375 73.4375 
Q 26.3125 74.21875 31.59375 74.21875 
Q 45.796875 74.21875 52.84375 69.546875 
Q 59.90625 64.890625 59.90625 55.515625 
Q 59.90625 49.125 56.53125 45.046875 
Q 53.171875 40.96875 46.578125 39.3125 
z
" id="DejaVuSans-Bold-51"/>
    </defs>
    <g transform="translate(650.127795 664.421714)rotate(-146.653465)scale(0.15 -0.15)">
     <use xlink:href="#DejaVuSans-Bold-80"/>
     <use x="73.291016" xlink:href="#DejaVuSans-Bold-76"/>
     <use x="137.011719" xlink:href="#DejaVuSans-Bold-58"/>
     <use x="177.001953" xlink:href="#DejaVuSans-Bold-32"/>
     <use x="211.816406" xlink:href="#DejaVuSans-Bold-50"/>
     <use x="281.396484" xlink:href="#DejaVuSans-Bold-55"/>
     <use x="350.976562" xlink:href="#DejaVuSans-Bold-51"/>
    </g>
   </g>
   <g id="text_3">
    <!-- lysoPL: 46 -->
    <defs>
     <path d="M 8.40625 75.984375 
L 25.875 75.984375 
L 25.875 0 
L 8.40625 0 
z
" id="DejaVuSans-Bold-108"/>
     <path d="M 1.21875 54.6875 
L 18.703125 54.6875 
L 33.40625 17.578125 
L 45.90625 54.6875 
L 63.375 54.6875 
L 40.375 -5.171875 
Q 36.921875 -14.3125 32.296875 -17.9375 
Q 27.6875 -21.578125 20.125 -21.578125 
L 10.015625 -21.578125 
L 10.015625 -10.109375 
L 15.484375 -10.109375 
Q 19.921875 -10.109375 21.9375 -8.6875 
Q 23.96875 -7.28125 25.09375 -3.609375 
L 25.59375 -2.09375 
z
" id="DejaVuSans-Bold-121"/>
     <path d="M 51.125 52.984375 
L 51.125 39.703125 
Q 45.515625 42.046875 40.28125 43.21875 
Q 35.0625 44.390625 30.421875 44.390625 
Q 25.4375 44.390625 23.015625 43.140625 
Q 20.609375 41.890625 20.609375 39.3125 
Q 20.609375 37.203125 22.4375 36.078125 
Q 24.265625 34.96875 29 34.421875 
L 32.078125 33.984375 
Q 45.515625 32.28125 50.140625 28.375 
Q 54.78125 24.46875 54.78125 16.109375 
Q 54.78125 7.375 48.328125 2.96875 
Q 41.890625 -1.421875 29.109375 -1.421875 
Q 23.6875 -1.421875 17.890625 -0.5625 
Q 12.109375 0.296875 6 2 
L 6 15.28125 
Q 11.234375 12.75 16.71875 11.46875 
Q 22.21875 10.203125 27.875 10.203125 
Q 33.015625 10.203125 35.59375 11.609375 
Q 38.1875 13.03125 38.1875 15.828125 
Q 38.1875 18.171875 36.40625 19.3125 
Q 34.625 20.453125 29.296875 21.09375 
L 26.21875 21.484375 
Q 14.546875 22.953125 9.859375 26.90625 
Q 5.171875 30.859375 5.171875 38.921875 
Q 5.171875 47.609375 11.125 51.796875 
Q 17.09375 56 29.390625 56 
Q 34.234375 56 39.546875 55.265625 
Q 44.875 54.546875 51.125 52.984375 
z
" id="DejaVuSans-Bold-115"/>
     <path d="M 34.421875 43.5 
Q 28.609375 43.5 25.5625 39.328125 
Q 22.515625 35.15625 22.515625 27.296875 
Q 22.515625 19.4375 25.5625 15.25 
Q 28.609375 11.078125 34.421875 11.078125 
Q 40.140625 11.078125 43.15625 15.25 
Q 46.1875 19.4375 46.1875 27.296875 
Q 46.1875 35.15625 43.15625 39.328125 
Q 40.140625 43.5 34.421875 43.5 
z
M 34.421875 56 
Q 48.53125 56 56.46875 48.375 
Q 64.40625 40.765625 64.40625 27.296875 
Q 64.40625 13.8125 56.46875 6.1875 
Q 48.53125 -1.421875 34.421875 -1.421875 
Q 20.265625 -1.421875 12.28125 6.1875 
Q 4.296875 13.8125 4.296875 27.296875 
Q 4.296875 40.765625 12.28125 48.375 
Q 20.265625 56 34.421875 56 
z
" id="DejaVuSans-Bold-111"/>
     <path d="M 36.8125 57.421875 
L 16.21875 26.90625 
L 36.8125 26.90625 
z
M 33.6875 72.90625 
L 54.59375 72.90625 
L 54.59375 26.90625 
L 64.984375 26.90625 
L 64.984375 13.28125 
L 54.59375 13.28125 
L 54.59375 0 
L 36.8125 0 
L 36.8125 13.28125 
L 4.5 13.28125 
L 4.5 29.390625 
z
" id="DejaVuSans-Bold-52"/>
     <path d="M 36.1875 35.984375 
Q 31.25 35.984375 28.78125 32.78125 
Q 26.3125 29.59375 26.3125 23.1875 
Q 26.3125 16.796875 28.78125 13.59375 
Q 31.25 10.40625 36.1875 10.40625 
Q 41.15625 10.40625 43.625 13.59375 
Q 46.09375 16.796875 46.09375 23.1875 
Q 46.09375 29.59375 43.625 32.78125 
Q 41.15625 35.984375 36.1875 35.984375 
z
M 59.421875 71 
L 59.421875 57.515625 
Q 54.78125 59.71875 50.671875 60.765625 
Q 46.578125 61.8125 42.671875 61.8125 
Q 34.28125 61.8125 29.59375 57.140625 
Q 24.90625 52.484375 24.125 43.3125 
Q 27.34375 45.703125 31.09375 46.890625 
Q 34.859375 48.09375 39.3125 48.09375 
Q 50.484375 48.09375 57.34375 41.546875 
Q 64.203125 35.015625 64.203125 24.421875 
Q 64.203125 12.703125 56.53125 5.640625 
Q 48.875 -1.421875 35.984375 -1.421875 
Q 21.78125 -1.421875 13.984375 8.171875 
Q 6.203125 17.78125 6.203125 35.40625 
Q 6.203125 53.46875 15.3125 63.796875 
Q 24.421875 74.125 40.28125 74.125 
Q 45.3125 74.125 50.046875 73.34375 
Q 54.78125 72.5625 59.421875 71 
z
" id="DejaVuSans-Bold-54"/>
    </defs>
    <g transform="translate(717.886015 821.215212)rotate(-260.356432)scale(0.15 -0.15)">
     <use xlink:href="#DejaVuSans-Bold-108"/>
     <use x="34.277344" xlink:href="#DejaVuSans-Bold-121"/>
     <use x="99.462891" xlink:href="#DejaVuSans-Bold-115"/>
     <use x="158.984375" xlink:href="#DejaVuSans-Bold-111"/>
     <use x="227.685547" xlink:href="#DejaVuSans-Bold-80"/>
     <use x="300.976562" xlink:href="#DejaVuSans-Bold-76"/>
     <use x="364.697266" xlink:href="#DejaVuSans-Bold-58"/>
     <use x="404.6875" xlink:href="#DejaVuSans-Bold-32"/>
     <use x="439.501953" xlink:href="#DejaVuSans-Bold-52"/>
     <use x="509.082031" xlink:href="#DejaVuSans-Bold-54"/>
    </g>
   </g>
   <g id="text_4">
    <!-- CAR: 27 -->
    <defs>
     <path d="M 67 4 
Q 61.8125 1.3125 56.203125 -0.046875 
Q 50.59375 -1.421875 44.484375 -1.421875 
Q 26.265625 -1.421875 15.625 8.765625 
Q 4.984375 18.953125 4.984375 36.375 
Q 4.984375 53.859375 15.625 64.03125 
Q 26.265625 74.21875 44.484375 74.21875 
Q 50.59375 74.21875 56.203125 72.84375 
Q 61.8125 71.484375 67 68.796875 
L 67 53.71875 
Q 61.765625 57.28125 56.6875 58.9375 
Q 51.609375 60.59375 46 60.59375 
Q 35.9375 60.59375 30.171875 54.140625 
Q 24.421875 47.703125 24.421875 36.375 
Q 24.421875 25.09375 30.171875 18.640625 
Q 35.9375 12.203125 46 12.203125 
Q 51.609375 12.203125 56.6875 13.859375 
Q 61.765625 15.53125 67 19.09375 
z
" id="DejaVuSans-Bold-67"/>
     <path d="M 53.421875 13.28125 
L 24.03125 13.28125 
L 19.390625 0 
L 0.484375 0 
L 27.484375 72.90625 
L 49.90625 72.90625 
L 76.90625 0 
L 58.015625 0 
z
M 28.71875 26.8125 
L 48.6875 26.8125 
L 38.71875 55.8125 
z
" id="DejaVuSans-Bold-65"/>
     <path d="M 35.890625 40.578125 
Q 41.796875 40.578125 44.359375 42.765625 
Q 46.921875 44.96875 46.921875 50 
Q 46.921875 54.984375 44.359375 57.125 
Q 41.796875 59.28125 35.890625 59.28125 
L 27.984375 59.28125 
L 27.984375 40.578125 
z
M 27.984375 27.59375 
L 27.984375 0 
L 9.1875 0 
L 9.1875 72.90625 
L 37.890625 72.90625 
Q 52.296875 72.90625 59 68.0625 
Q 65.71875 63.234375 65.71875 52.78125 
Q 65.71875 45.5625 62.21875 40.921875 
Q 58.734375 36.28125 51.703125 34.078125 
Q 55.5625 33.203125 58.609375 30.09375 
Q 61.671875 27 64.796875 20.703125 
L 75 0 
L 54.984375 0 
L 46.09375 18.109375 
Q 43.40625 23.578125 40.640625 25.578125 
Q 37.890625 27.59375 33.296875 27.59375 
z
" id="DejaVuSans-Bold-82"/>
    </defs>
    <g transform="translate(764.006578 830.378754)rotate(-286.376233)scale(0.15 -0.15)">
     <use xlink:href="#DejaVuSans-Bold-67"/>
     <use x="73.388672" xlink:href="#DejaVuSans-Bold-65"/>
     <use x="150.78125" xlink:href="#DejaVuSans-Bold-82"/>
     <use x="227.783203" xlink:href="#DejaVuSans-Bold-58"/>
     <use x="267.773438" xlink:href="#DejaVuSans-Bold-32"/>
     <use x="302.587891" xlink:href="#DejaVuSans-Bold-50"/>
     <use x="372.167969" xlink:href="#DejaVuSans-Bold-55"/>
    </g>
   </g>
   <g id="text_5">
    <!-- SM: 41 -->
    <defs>
     <path d="M 9.1875 72.90625 
L 33.109375 72.90625 
L 49.703125 33.890625 
L 66.40625 72.90625 
L 90.28125 72.90625 
L 90.28125 0 
L 72.515625 0 
L 72.515625 53.328125 
L 55.71875 14.015625 
L 43.796875 14.015625 
L 27 53.328125 
L 27 0 
L 9.1875 0 
z
" id="DejaVuSans-Bold-77"/>
    </defs>
    <g transform="translate(895.42885 916.720008)rotate(-310.613862)scale(0.14 -0.14)">
     <use xlink:href="#DejaVuSans-Bold-83"/>
     <use x="72.021484" xlink:href="#DejaVuSans-Bold-77"/>
     <use x="171.533203" xlink:href="#DejaVuSans-Bold-58"/>
     <use x="211.523438" xlink:href="#DejaVuSans-Bold-32"/>
     <use x="246.337891" xlink:href="#DejaVuSans-Bold-52"/>
     <use x="315.917969" xlink:href="#DejaVuSans-Bold-49"/>
    </g>
   </g>
   <g id="text_6">
    <!-- dhCer: 3 -->
    <defs>
     <path d="M 45.609375 46.6875 
L 45.609375 75.984375 
L 63.1875 75.984375 
L 63.1875 0 
L 45.609375 0 
L 45.609375 7.90625 
Q 42 3.078125 37.640625 0.828125 
Q 33.296875 -1.421875 27.59375 -1.421875 
Q 17.484375 -1.421875 10.984375 6.609375 
Q 4.5 14.65625 4.5 27.296875 
Q 4.5 39.9375 10.984375 47.96875 
Q 17.484375 56 27.59375 56 
Q 33.25 56 37.625 53.734375 
Q 42 51.46875 45.609375 46.6875 
z
M 34.078125 11.28125 
Q 39.703125 11.28125 42.65625 15.375 
Q 45.609375 19.484375 45.609375 27.296875 
Q 45.609375 35.109375 42.65625 39.203125 
Q 39.703125 43.3125 34.078125 43.3125 
Q 28.515625 43.3125 25.5625 39.203125 
Q 22.609375 35.109375 22.609375 27.296875 
Q 22.609375 19.484375 25.5625 15.375 
Q 28.515625 11.28125 34.078125 11.28125 
z
" id="DejaVuSans-Bold-100"/>
     <path d="M 63.375 33.296875 
L 63.375 0 
L 45.796875 0 
L 45.796875 5.421875 
L 45.796875 25.390625 
Q 45.796875 32.5625 45.484375 35.25 
Q 45.171875 37.9375 44.390625 39.203125 
Q 43.359375 40.921875 41.59375 41.875 
Q 39.84375 42.828125 37.59375 42.828125 
Q 32.125 42.828125 29 38.59375 
Q 25.875 34.375 25.875 26.90625 
L 25.875 0 
L 8.40625 0 
L 8.40625 75.984375 
L 25.875 75.984375 
L 25.875 46.6875 
Q 29.828125 51.46875 34.265625 53.734375 
Q 38.71875 56 44.09375 56 
Q 53.5625 56 58.46875 50.1875 
Q 63.375 44.390625 63.375 33.296875 
z
" id="DejaVuSans-Bold-104"/>
     <path d="M 62.984375 27.484375 
L 62.984375 22.515625 
L 22.125 22.515625 
Q 22.75 16.359375 26.5625 13.28125 
Q 30.375 10.203125 37.203125 10.203125 
Q 42.71875 10.203125 48.5 11.84375 
Q 54.296875 13.484375 60.40625 16.796875 
L 60.40625 3.328125 
Q 54.203125 0.984375 48 -0.21875 
Q 41.796875 -1.421875 35.59375 -1.421875 
Q 20.75 -1.421875 12.515625 6.125 
Q 4.296875 13.671875 4.296875 27.296875 
Q 4.296875 40.671875 12.375 48.328125 
Q 20.453125 56 34.625 56 
Q 47.515625 56 55.25 48.234375 
Q 62.984375 40.484375 62.984375 27.484375 
z
M 45.015625 33.296875 
Q 45.015625 38.28125 42.109375 41.328125 
Q 39.203125 44.390625 34.515625 44.390625 
Q 29.4375 44.390625 26.265625 41.53125 
Q 23.09375 38.671875 22.3125 33.296875 
z
" id="DejaVuSans-Bold-101"/>
     <path d="M 49.03125 39.796875 
Q 46.734375 40.875 44.453125 41.375 
Q 42.1875 41.890625 39.890625 41.890625 
Q 33.15625 41.890625 29.515625 37.5625 
Q 25.875 33.25 25.875 25.203125 
L 25.875 0 
L 8.40625 0 
L 8.40625 54.6875 
L 25.875 54.6875 
L 25.875 45.703125 
Q 29.25 51.078125 33.609375 53.53125 
Q 37.984375 56 44.09375 56 
Q 44.96875 56 45.984375 55.921875 
Q 47.015625 55.859375 48.96875 55.609375 
z
" id="DejaVuSans-Bold-114"/>
    </defs>
    <g transform="translate(946.130299 869.00641)rotate(-326.29703)scale(0.09 -0.09)">
     <use xlink:href="#DejaVuSans-Bold-100"/>
     <use x="71.582031" xlink:href="#DejaVuSans-Bold-104"/>
     <use x="142.773438" xlink:href="#DejaVuSans-Bold-67"/>
     <use x="216.162109" xlink:href="#DejaVuSans-Bold-101"/>
     <use x="283.984375" xlink:href="#DejaVuSans-Bold-114"/>
     <use x="333.300781" xlink:href="#DejaVuSans-Bold-58"/>
     <use x="373.291016" xlink:href="#DejaVuSans-Bold-32"/>
     <use x="408.105469" xlink:href="#DejaVuSans-Bold-51"/>
    </g>
   </g>
   <g id="text_7">
    <!-- Cer: 38 -->
    <defs>
     <path d="M 34.8125 32.625 
Q 29.546875 32.625 26.703125 29.734375 
Q 23.875 26.859375 23.875 21.484375 
Q 23.875 16.109375 26.703125 13.25 
Q 29.546875 10.40625 34.8125 10.40625 
Q 40.046875 10.40625 42.828125 13.25 
Q 45.609375 16.109375 45.609375 21.484375 
Q 45.609375 26.90625 42.828125 29.765625 
Q 40.046875 32.625 34.8125 32.625 
z
M 21.09375 38.8125 
Q 14.453125 40.828125 11.078125 44.96875 
Q 7.71875 49.125 7.71875 55.328125 
Q 7.71875 64.546875 14.59375 69.375 
Q 21.484375 74.21875 34.8125 74.21875 
Q 48.046875 74.21875 54.921875 69.40625 
Q 61.8125 64.59375 61.8125 55.328125 
Q 61.8125 49.125 58.421875 44.96875 
Q 55.03125 40.828125 48.390625 38.8125 
Q 55.8125 36.765625 59.59375 32.15625 
Q 63.375 27.546875 63.375 20.515625 
Q 63.375 9.671875 56.171875 4.125 
Q 48.96875 -1.421875 34.8125 -1.421875 
Q 20.609375 -1.421875 13.359375 4.125 
Q 6.109375 9.671875 6.109375 20.515625 
Q 6.109375 27.546875 9.890625 32.15625 
Q 13.671875 36.765625 21.09375 38.8125 
z
M 25.484375 53.421875 
Q 25.484375 49.078125 27.90625 46.734375 
Q 30.328125 44.390625 34.8125 44.390625 
Q 39.203125 44.390625 41.59375 46.734375 
Q 44 49.078125 44 53.421875 
Q 44 57.765625 41.59375 60.078125 
Q 39.203125 62.40625 34.8125 62.40625 
Q 30.328125 62.40625 27.90625 60.0625 
Q 25.484375 57.71875 25.484375 53.421875 
z
" id="DejaVuSans-Bold-56"/>
    </defs>
    <g transform="translate(968.280219 810.980568)rotate(-340.910892)scale(0.14 -0.14)">
     <use xlink:href="#DejaVuSans-Bold-67"/>
     <use x="73.388672" xlink:href="#DejaVuSans-Bold-101"/>
     <use x="141.210938" xlink:href="#DejaVuSans-Bold-114"/>
     <use x="190.527344" xlink:href="#DejaVuSans-Bold-58"/>
     <use x="230.517578" xlink:href="#DejaVuSans-Bold-32"/>
     <use x="265.332031" xlink:href="#DejaVuSans-Bold-51"/>
     <use x="334.912109" xlink:href="#DejaVuSans-Bold-56"/>
    </g>
   </g>
   <g id="text_8">
    <!-- Hex(n)Cer: 25 -->
    <defs>
     <path d="M 9.1875 72.90625 
L 27.984375 72.90625 
L 27.984375 45.125 
L 55.71875 45.125 
L 55.71875 72.90625 
L 74.515625 72.90625 
L 74.515625 0 
L 55.71875 0 
L 55.71875 30.90625 
L 27.984375 30.90625 
L 27.984375 0 
L 9.1875 0 
z
" id="DejaVuSans-Bold-72"/>
     <path d="M 22.21875 27.984375 
L 2.484375 54.6875 
L 21 54.6875 
L 32.171875 38.484375 
L 43.5 54.6875 
L 62.015625 54.6875 
L 42.28125 28.078125 
L 62.984375 0 
L 44.484375 0 
L 32.171875 17.28125 
L 20.015625 0 
L 1.515625 0 
z
" id="DejaVuSans-Bold-120"/>
     <path d="M 37.703125 -13.1875 
L 23.1875 -13.1875 
Q 15.71875 -1.125 12.15625 9.734375 
Q 8.59375 20.609375 8.59375 31.296875 
Q 8.59375 42 12.171875 52.953125 
Q 15.765625 63.921875 23.1875 75.875 
L 37.703125 75.875 
Q 31.453125 64.3125 28.328125 53.25 
Q 25.203125 42.1875 25.203125 31.390625 
Q 25.203125 20.609375 28.296875 9.515625 
Q 31.390625 -1.5625 37.703125 -13.1875 
z
" id="DejaVuSans-Bold-40"/>
     <path d="M 63.375 33.296875 
L 63.375 0 
L 45.796875 0 
L 45.796875 5.421875 
L 45.796875 25.484375 
Q 45.796875 32.5625 45.484375 35.25 
Q 45.171875 37.9375 44.390625 39.203125 
Q 43.359375 40.921875 41.59375 41.875 
Q 39.84375 42.828125 37.59375 42.828125 
Q 32.125 42.828125 29 38.59375 
Q 25.875 34.375 25.875 26.90625 
L 25.875 0 
L 8.40625 0 
L 8.40625 54.6875 
L 25.875 54.6875 
L 25.875 46.6875 
Q 29.828125 51.46875 34.265625 53.734375 
Q 38.71875 56 44.09375 56 
Q 53.5625 56 58.46875 50.1875 
Q 63.375 44.390625 63.375 33.296875 
z
" id="DejaVuSans-Bold-110"/>
     <path d="M 8.015625 -13.1875 
Q 14.265625 -1.5625 17.390625 9.515625 
Q 20.515625 20.609375 20.515625 31.390625 
Q 20.515625 42.1875 17.390625 53.25 
Q 14.265625 64.3125 8.015625 75.875 
L 22.515625 75.875 
Q 29.9375 63.921875 33.515625 52.953125 
Q 37.109375 42 37.109375 31.296875 
Q 37.109375 20.609375 33.546875 9.734375 
Q 29.984375 -1.125 22.515625 -13.1875 
z
" id="DejaVuSans-Bold-41"/>
    </defs>
    <g transform="translate(975.826501 715.698448)rotate(-3.366338)scale(0.09 -0.09)">
     <use xlink:href="#DejaVuSans-Bold-72"/>
     <use x="83.691406" xlink:href="#DejaVuSans-Bold-101"/>
     <use x="151.513672" xlink:href="#DejaVuSans-Bold-120"/>
     <use x="216.015625" xlink:href="#DejaVuSans-Bold-40"/>
     <use x="261.71875" xlink:href="#DejaVuSans-Bold-110"/>
     <use x="332.910156" xlink:href="#DejaVuSans-Bold-41"/>
     <use x="378.613281" xlink:href="#DejaVuSans-Bold-67"/>
     <use x="452.001953" xlink:href="#DejaVuSans-Bold-101"/>
     <use x="519.824219" xlink:href="#DejaVuSans-Bold-114"/>
     <use x="569.140625" xlink:href="#DejaVuSans-Bold-58"/>
     <use x="609.130859" xlink:href="#DejaVuSans-Bold-32"/>
     <use x="643.945312" xlink:href="#DejaVuSans-Bold-50"/>
     <use x="713.525391" xlink:href="#DejaVuSans-Bold-53"/>
    </g>
   </g>
   <g id="text_9">
    <!-- sphingadienineCer: 14 -->
    <defs>
     <path d="M 25.875 7.90625 
L 25.875 -20.796875 
L 8.40625 -20.796875 
L 8.40625 54.6875 
L 25.875 54.6875 
L 25.875 46.6875 
Q 29.5 51.46875 33.890625 53.734375 
Q 38.28125 56 44 56 
Q 54.109375 56 60.59375 47.96875 
Q 67.09375 39.9375 67.09375 27.296875 
Q 67.09375 14.65625 60.59375 6.609375 
Q 54.109375 -1.421875 44 -1.421875 
Q 38.28125 -1.421875 33.890625 0.84375 
Q 29.5 3.125 25.875 7.90625 
z
M 37.5 43.3125 
Q 31.890625 43.3125 28.875 39.1875 
Q 25.875 35.0625 25.875 27.296875 
Q 25.875 19.53125 28.875 15.40625 
Q 31.890625 11.28125 37.5 11.28125 
Q 43.109375 11.28125 46.0625 15.375 
Q 49.03125 19.484375 49.03125 27.296875 
Q 49.03125 35.109375 46.0625 39.203125 
Q 43.109375 43.3125 37.5 43.3125 
z
" id="DejaVuSans-Bold-112"/>
     <path d="M 8.40625 54.6875 
L 25.875 54.6875 
L 25.875 0 
L 8.40625 0 
z
M 8.40625 75.984375 
L 25.875 75.984375 
L 25.875 61.71875 
L 8.40625 61.71875 
z
" id="DejaVuSans-Bold-105"/>
     <path d="M 45.609375 9.28125 
Q 42 4.5 37.640625 2.25 
Q 33.296875 0 27.59375 0 
Q 17.578125 0 11.03125 7.875 
Q 4.5 15.765625 4.5 27.984375 
Q 4.5 40.234375 11.03125 48.0625 
Q 17.578125 55.90625 27.59375 55.90625 
Q 33.296875 55.90625 37.640625 53.65625 
Q 42 51.421875 45.609375 46.578125 
L 45.609375 54.6875 
L 63.1875 54.6875 
L 63.1875 5.515625 
Q 63.1875 -7.671875 54.859375 -14.625 
Q 46.53125 -21.578125 30.71875 -21.578125 
Q 25.59375 -21.578125 20.796875 -20.796875 
Q 16.015625 -20.015625 11.1875 -18.40625 
L 11.1875 -4.78125 
Q 15.765625 -7.421875 20.15625 -8.71875 
Q 24.5625 -10.015625 29 -10.015625 
Q 37.59375 -10.015625 41.59375 -6.25 
Q 45.609375 -2.484375 45.609375 5.515625 
z
M 34.078125 43.3125 
Q 28.65625 43.3125 25.625 39.296875 
Q 22.609375 35.296875 22.609375 27.984375 
Q 22.609375 20.453125 25.53125 16.578125 
Q 28.46875 12.703125 34.078125 12.703125 
Q 39.546875 12.703125 42.578125 16.703125 
Q 45.609375 20.703125 45.609375 27.984375 
Q 45.609375 35.296875 42.578125 39.296875 
Q 39.546875 43.3125 34.078125 43.3125 
z
" id="DejaVuSans-Bold-103"/>
     <path d="M 32.90625 24.609375 
Q 27.4375 24.609375 24.671875 22.75 
Q 21.921875 20.90625 21.921875 17.28125 
Q 21.921875 13.96875 24.140625 12.078125 
Q 26.375 10.203125 30.328125 10.203125 
Q 35.25 10.203125 38.625 13.734375 
Q 42 17.28125 42 22.609375 
L 42 24.609375 
z
M 59.625 31.203125 
L 59.625 0 
L 42 0 
L 42 8.109375 
Q 38.484375 3.125 34.078125 0.84375 
Q 29.6875 -1.421875 23.390625 -1.421875 
Q 14.890625 -1.421875 9.59375 3.53125 
Q 4.296875 8.5 4.296875 16.40625 
Q 4.296875 26.03125 10.90625 30.515625 
Q 17.53125 35.015625 31.6875 35.015625 
L 42 35.015625 
L 42 36.375 
Q 42 40.53125 38.71875 42.453125 
Q 35.453125 44.390625 28.515625 44.390625 
Q 22.90625 44.390625 18.0625 43.265625 
Q 13.234375 42.140625 9.078125 39.890625 
L 9.078125 53.21875 
Q 14.703125 54.59375 20.359375 55.296875 
Q 26.03125 56 31.6875 56 
Q 46.484375 56 53.046875 50.171875 
Q 59.625 44.34375 59.625 31.203125 
z
" id="DejaVuSans-Bold-97"/>
    </defs>
    <g transform="translate(945.187055 665.361835)rotate(-17.267328)scale(0.09 -0.09)">
     <use xlink:href="#DejaVuSans-Bold-115"/>
     <use x="59.521484" xlink:href="#DejaVuSans-Bold-112"/>
     <use x="131.103516" xlink:href="#DejaVuSans-Bold-104"/>
     <use x="202.294922" xlink:href="#DejaVuSans-Bold-105"/>
     <use x="236.572266" xlink:href="#DejaVuSans-Bold-110"/>
     <use x="307.763672" xlink:href="#DejaVuSans-Bold-103"/>
     <use x="379.345703" xlink:href="#DejaVuSans-Bold-97"/>
     <use x="446.826172" xlink:href="#DejaVuSans-Bold-100"/>
     <use x="518.408203" xlink:href="#DejaVuSans-Bold-105"/>
     <use x="552.685547" xlink:href="#DejaVuSans-Bold-101"/>
     <use x="620.507812" xlink:href="#DejaVuSans-Bold-110"/>
     <use x="691.699219" xlink:href="#DejaVuSans-Bold-105"/>
     <use x="725.976562" xlink:href="#DejaVuSans-Bold-110"/>
     <use x="797.167969" xlink:href="#DejaVuSans-Bold-101"/>
     <use x="864.990234" xlink:href="#DejaVuSans-Bold-67"/>
     <use x="938.378906" xlink:href="#DejaVuSans-Bold-101"/>
     <use x="1006.201172" xlink:href="#DejaVuSans-Bold-114"/>
     <use x="1055.517578" xlink:href="#DejaVuSans-Bold-58"/>
     <use x="1095.507812" xlink:href="#DejaVuSans-Bold-32"/>
     <use x="1130.322266" xlink:href="#DejaVuSans-Bold-49"/>
     <use x="1199.902344" xlink:href="#DejaVuSans-Bold-52"/>
    </g>
   </g>
   <g id="text_10">
    <!-- Hex(n)sphingadienineCer: 3 -->
    <g transform="translate(924.732168 649.343328)rotate(-23.326734)scale(0.09 -0.09)">
     <use xlink:href="#DejaVuSans-Bold-72"/>
     <use x="83.691406" xlink:href="#DejaVuSans-Bold-101"/>
     <use x="151.513672" xlink:href="#DejaVuSans-Bold-120"/>
     <use x="216.015625" xlink:href="#DejaVuSans-Bold-40"/>
     <use x="261.71875" xlink:href="#DejaVuSans-Bold-110"/>
     <use x="332.910156" xlink:href="#DejaVuSans-Bold-41"/>
     <use x="378.613281" xlink:href="#DejaVuSans-Bold-115"/>
     <use x="438.134766" xlink:href="#DejaVuSans-Bold-112"/>
     <use x="509.716797" xlink:href="#DejaVuSans-Bold-104"/>
     <use x="580.908203" xlink:href="#DejaVuSans-Bold-105"/>
     <use x="615.185547" xlink:href="#DejaVuSans-Bold-110"/>
     <use x="686.376953" xlink:href="#DejaVuSans-Bold-103"/>
     <use x="757.958984" xlink:href="#DejaVuSans-Bold-97"/>
     <use x="825.439453" xlink:href="#DejaVuSans-Bold-100"/>
     <use x="897.021484" xlink:href="#DejaVuSans-Bold-105"/>
     <use x="931.298828" xlink:href="#DejaVuSans-Bold-101"/>
     <use x="999.121094" xlink:href="#DejaVuSans-Bold-110"/>
     <use x="1070.3125" xlink:href="#DejaVuSans-Bold-105"/>
     <use x="1104.589844" xlink:href="#DejaVuSans-Bold-110"/>
     <use x="1175.78125" xlink:href="#DejaVuSans-Bold-101"/>
     <use x="1243.603516" xlink:href="#DejaVuSans-Bold-67"/>
     <use x="1316.992188" xlink:href="#DejaVuSans-Bold-101"/>
     <use x="1384.814453" xlink:href="#DejaVuSans-Bold-114"/>
     <use x="1434.130859" xlink:href="#DejaVuSans-Bold-58"/>
     <use x="1474.121094" xlink:href="#DejaVuSans-Bold-32"/>
     <use x="1508.935547" xlink:href="#DejaVuSans-Bold-51"/>
    </g>
   </g>
   <g id="text_11">
    <!-- dh-deoxyCer: 11 -->
    <defs>
     <path d="M 5.421875 35.890625 
L 36.078125 35.890625 
L 36.078125 21.6875 
L 5.421875 21.6875 
z
" id="DejaVuSans-Bold-45"/>
    </defs>
    <g transform="translate(943.079413 619.479453)rotate(-28.316833)scale(0.09 -0.09)">
     <use xlink:href="#DejaVuSans-Bold-100"/>
     <use x="71.582031" xlink:href="#DejaVuSans-Bold-104"/>
     <use x="142.773438" xlink:href="#DejaVuSans-Bold-45"/>
     <use x="184.277344" xlink:href="#DejaVuSans-Bold-100"/>
     <use x="255.859375" xlink:href="#DejaVuSans-Bold-101"/>
     <use x="323.681641" xlink:href="#DejaVuSans-Bold-111"/>
     <use x="392.382812" xlink:href="#DejaVuSans-Bold-120"/>
     <use x="456.884766" xlink:href="#DejaVuSans-Bold-121"/>
     <use x="522.070312" xlink:href="#DejaVuSans-Bold-67"/>
     <use x="595.458984" xlink:href="#DejaVuSans-Bold-101"/>
     <use x="663.28125" xlink:href="#DejaVuSans-Bold-114"/>
     <use x="712.597656" xlink:href="#DejaVuSans-Bold-58"/>
     <use x="752.587891" xlink:href="#DejaVuSans-Bold-32"/>
     <use x="787.402344" xlink:href="#DejaVuSans-Bold-49"/>
     <use x="856.982422" xlink:href="#DejaVuSans-Bold-49"/>
    </g>
   </g>
   <g id="text_12">
    <!-- deoxyCer: 15 -->
    <g transform="translate(929.626256 582.801773)rotate(-37.58416)scale(0.09 -0.09)">
     <use xlink:href="#DejaVuSans-Bold-100"/>
     <use x="71.582031" xlink:href="#DejaVuSans-Bold-101"/>
     <use x="139.404297" xlink:href="#DejaVuSans-Bold-111"/>
     <use x="208.105469" xlink:href="#DejaVuSans-Bold-120"/>
     <use x="272.607422" xlink:href="#DejaVuSans-Bold-121"/>
     <use x="337.792969" xlink:href="#DejaVuSans-Bold-67"/>
     <use x="411.181641" xlink:href="#DejaVuSans-Bold-101"/>
     <use x="479.003906" xlink:href="#DejaVuSans-Bold-114"/>
     <use x="528.320312" xlink:href="#DejaVuSans-Bold-58"/>
     <use x="568.310547" xlink:href="#DejaVuSans-Bold-32"/>
     <use x="603.125" xlink:href="#DejaVuSans-Bold-49"/>
     <use x="672.705078" xlink:href="#DejaVuSans-Bold-53"/>
    </g>
   </g>
   <g id="text_13">
    <!-- phytoCer: 6 -->
    <defs>
     <path d="M 27.484375 70.21875 
L 27.484375 54.6875 
L 45.515625 54.6875 
L 45.515625 42.1875 
L 27.484375 42.1875 
L 27.484375 19 
Q 27.484375 15.1875 29 13.84375 
Q 30.515625 12.5 35.015625 12.5 
L 44 12.5 
L 44 0 
L 29 0 
Q 18.65625 0 14.328125 4.3125 
Q 10.015625 8.640625 10.015625 19 
L 10.015625 42.1875 
L 1.3125 42.1875 
L 1.3125 54.6875 
L 10.015625 54.6875 
L 10.015625 70.21875 
z
" id="DejaVuSans-Bold-116"/>
    </defs>
    <g transform="translate(911.818066 556.427492)rotate(-45.069308)scale(0.09 -0.09)">
     <use xlink:href="#DejaVuSans-Bold-112"/>
     <use x="71.582031" xlink:href="#DejaVuSans-Bold-104"/>
     <use x="142.773438" xlink:href="#DejaVuSans-Bold-121"/>
     <use x="207.958984" xlink:href="#DejaVuSans-Bold-116"/>
     <use x="255.761719" xlink:href="#DejaVuSans-Bold-111"/>
     <use x="324.462891" xlink:href="#DejaVuSans-Bold-67"/>
     <use x="397.851562" xlink:href="#DejaVuSans-Bold-101"/>
     <use x="465.673828" xlink:href="#DejaVuSans-Bold-114"/>
     <use x="514.990234" xlink:href="#DejaVuSans-Bold-58"/>
     <use x="554.980469" xlink:href="#DejaVuSans-Bold-32"/>
     <use x="589.794922" xlink:href="#DejaVuSans-Bold-54"/>
    </g>
   </g>
   <g id="text_14">
    <!-- Hex(n)phytoCer: 3 -->
    <g transform="translate(890.650485 559.684593)rotate(-48.277229)scale(0.09 -0.09)">
     <use xlink:href="#DejaVuSans-Bold-72"/>
     <use x="83.691406" xlink:href="#DejaVuSans-Bold-101"/>
     <use x="151.513672" xlink:href="#DejaVuSans-Bold-120"/>
     <use x="216.015625" xlink:href="#DejaVuSans-Bold-40"/>
     <use x="261.71875" xlink:href="#DejaVuSans-Bold-110"/>
     <use x="332.910156" xlink:href="#DejaVuSans-Bold-41"/>
     <use x="378.613281" xlink:href="#DejaVuSans-Bold-112"/>
     <use x="450.195312" xlink:href="#DejaVuSans-Bold-104"/>
     <use x="521.386719" xlink:href="#DejaVuSans-Bold-121"/>
     <use x="586.572266" xlink:href="#DejaVuSans-Bold-116"/>
     <use x="634.375" xlink:href="#DejaVuSans-Bold-111"/>
     <use x="703.076172" xlink:href="#DejaVuSans-Bold-67"/>
     <use x="776.464844" xlink:href="#DejaVuSans-Bold-101"/>
     <use x="844.287109" xlink:href="#DejaVuSans-Bold-114"/>
     <use x="893.603516" xlink:href="#DejaVuSans-Bold-58"/>
     <use x="933.59375" xlink:href="#DejaVuSans-Bold-32"/>
     <use x="968.408203" xlink:href="#DejaVuSans-Bold-51"/>
    </g>
   </g>
   <g id="text_15">
    <!-- PC: 71 -->
    <g transform="translate(807.382871 488.982572)rotate(-74.653468)scale(0.14 -0.14)">
     <use xlink:href="#DejaVuSans-Bold-80"/>
     <use x="73.291016" xlink:href="#DejaVuSans-Bold-67"/>
     <use x="146.679688" xlink:href="#DejaVuSans-Bold-58"/>
     <use x="186.669922" xlink:href="#DejaVuSans-Bold-32"/>
     <use x="221.484375" xlink:href="#DejaVuSans-Bold-55"/>
     <use x="291.064453" xlink:href="#DejaVuSans-Bold-49"/>
    </g>
   </g>
   <g id="text_16">
    <!-- O-PC: 20 -->
    <defs>
     <path d="M 42.484375 60.59375 
Q 33.890625 60.59375 29.15625 54.25 
Q 24.421875 47.90625 24.421875 36.375 
Q 24.421875 24.90625 29.15625 18.546875 
Q 33.890625 12.203125 42.484375 12.203125 
Q 51.125 12.203125 55.859375 18.546875 
Q 60.59375 24.90625 60.59375 36.375 
Q 60.59375 47.90625 55.859375 54.25 
Q 51.125 60.59375 42.484375 60.59375 
z
M 42.484375 74.21875 
Q 60.0625 74.21875 70.015625 64.15625 
Q 79.984375 54.109375 79.984375 36.375 
Q 79.984375 18.703125 70.015625 8.640625 
Q 60.0625 -1.421875 42.484375 -1.421875 
Q 24.953125 -1.421875 14.96875 8.640625 
Q 4.984375 18.703125 4.984375 36.375 
Q 4.984375 54.109375 14.96875 64.15625 
Q 24.953125 74.21875 42.484375 74.21875 
z
" id="DejaVuSans-Bold-79"/>
     <path d="M 46 36.53125 
Q 46 50.203125 43.4375 55.78125 
Q 40.875 61.375 34.8125 61.375 
Q 28.765625 61.375 26.171875 55.78125 
Q 23.578125 50.203125 23.578125 36.53125 
Q 23.578125 22.703125 26.171875 17.03125 
Q 28.765625 11.375 34.8125 11.375 
Q 40.828125 11.375 43.40625 17.03125 
Q 46 22.703125 46 36.53125 
z
M 64.796875 36.375 
Q 64.796875 18.265625 56.984375 8.421875 
Q 49.171875 -1.421875 34.8125 -1.421875 
Q 20.40625 -1.421875 12.59375 8.421875 
Q 4.78125 18.265625 4.78125 36.375 
Q 4.78125 54.546875 12.59375 64.375 
Q 20.40625 74.21875 34.8125 74.21875 
Q 49.171875 74.21875 56.984375 64.375 
Q 64.796875 54.546875 64.796875 36.375 
z
" id="DejaVuSans-Bold-48"/>
    </defs>
    <g transform="translate(671.393133 497.398315)rotate(-107.089112)scale(0.14 -0.14)">
     <use xlink:href="#DejaVuSans-Bold-79"/>
     <use x="85.025391" xlink:href="#DejaVuSans-Bold-45"/>
     <use x="126.529297" xlink:href="#DejaVuSans-Bold-80"/>
     <use x="199.820312" xlink:href="#DejaVuSans-Bold-67"/>
     <use x="273.208984" xlink:href="#DejaVuSans-Bold-58"/>
     <use x="313.199219" xlink:href="#DejaVuSans-Bold-32"/>
     <use x="348.013672" xlink:href="#DejaVuSans-Bold-50"/>
     <use x="417.59375" xlink:href="#DejaVuSans-Bold-48"/>
    </g>
   </g>
   <g id="text_17">
    <!-- P-PC: 28 -->
    <g transform="translate(606.273258 526.482382)rotate(-124.198023)scale(0.14 -0.14)">
     <use xlink:href="#DejaVuSans-Bold-80"/>
     <use x="73.275391" xlink:href="#DejaVuSans-Bold-45"/>
     <use x="114.779297" xlink:href="#DejaVuSans-Bold-80"/>
     <use x="188.070312" xlink:href="#DejaVuSans-Bold-67"/>
     <use x="261.458984" xlink:href="#DejaVuSans-Bold-58"/>
     <use x="301.449219" xlink:href="#DejaVuSans-Bold-32"/>
     <use x="336.263672" xlink:href="#DejaVuSans-Bold-50"/>
     <use x="405.84375" xlink:href="#DejaVuSans-Bold-56"/>
    </g>
   </g>
   <g id="text_18">
    <!-- PE: 48 -->
    <defs>
     <path d="M 9.1875 72.90625 
L 59.90625 72.90625 
L 59.90625 58.6875 
L 27.984375 58.6875 
L 27.984375 45.125 
L 58.015625 45.125 
L 58.015625 30.90625 
L 27.984375 30.90625 
L 27.984375 14.203125 
L 60.984375 14.203125 
L 60.984375 0 
L 9.1875 0 
z
" id="DejaVuSans-Bold-69"/>
    </defs>
    <g transform="translate(521.963351 604.455583)rotate(-151.287133)scale(0.14 -0.14)">
     <use xlink:href="#DejaVuSans-Bold-80"/>
     <use x="73.291016" xlink:href="#DejaVuSans-Bold-69"/>
     <use x="141.601562" xlink:href="#DejaVuSans-Bold-58"/>
     <use x="181.591797" xlink:href="#DejaVuSans-Bold-32"/>
     <use x="216.40625" xlink:href="#DejaVuSans-Bold-52"/>
     <use x="285.986328" xlink:href="#DejaVuSans-Bold-56"/>
    </g>
   </g>
   <g id="text_19">
    <!-- O-PE: 7 -->
    <g transform="translate(497.239717 684.6856)rotate(-170.891094)scale(0.14 -0.14)">
     <use xlink:href="#DejaVuSans-Bold-79"/>
     <use x="85.025391" xlink:href="#DejaVuSans-Bold-45"/>
     <use x="126.529297" xlink:href="#DejaVuSans-Bold-80"/>
     <use x="199.820312" xlink:href="#DejaVuSans-Bold-69"/>
     <use x="268.130859" xlink:href="#DejaVuSans-Bold-58"/>
     <use x="308.121094" xlink:href="#DejaVuSans-Bold-32"/>
     <use x="342.935547" xlink:href="#DejaVuSans-Bold-55"/>
    </g>
   </g>
   <g id="text_20">
    <!-- P-PE: 65 -->
    <g transform="translate(506.45765 791.995255)rotate(-196.554461)scale(0.14 -0.14)">
     <use xlink:href="#DejaVuSans-Bold-80"/>
     <use x="73.275391" xlink:href="#DejaVuSans-Bold-45"/>
     <use x="114.779297" xlink:href="#DejaVuSans-Bold-80"/>
     <use x="188.070312" xlink:href="#DejaVuSans-Bold-69"/>
     <use x="256.380859" xlink:href="#DejaVuSans-Bold-58"/>
     <use x="296.371094" xlink:href="#DejaVuSans-Bold-32"/>
     <use x="331.185547" xlink:href="#DejaVuSans-Bold-54"/>
     <use x="400.765625" xlink:href="#DejaVuSans-Bold-53"/>
    </g>
   </g>
   <g id="text_21">
    <!-- PS: 9 -->
    <g transform="translate(550.089217 896.728986)rotate(-222.9307)scale(0.14 -0.14)">
     <use xlink:href="#DejaVuSans-Bold-80"/>
     <use x="73.291016" xlink:href="#DejaVuSans-Bold-83"/>
     <use x="145.3125" xlink:href="#DejaVuSans-Bold-58"/>
     <use x="185.302734" xlink:href="#DejaVuSans-Bold-32"/>
     <use x="220.117188" xlink:href="#DejaVuSans-Bold-57"/>
    </g>
   </g>
   <g id="text_22">
    <!-- PG: 7 -->
    <defs>
     <path d="M 74.703125 5.421875 
Q 67.671875 2 60.109375 0.28125 
Q 52.546875 -1.421875 44.484375 -1.421875 
Q 26.265625 -1.421875 15.625 8.765625 
Q 4.984375 18.953125 4.984375 36.375 
Q 4.984375 54 15.8125 64.109375 
Q 26.65625 74.21875 45.515625 74.21875 
Q 52.78125 74.21875 59.4375 72.84375 
Q 66.109375 71.484375 72.015625 68.796875 
L 72.015625 53.71875 
Q 65.921875 57.171875 59.890625 58.875 
Q 53.859375 60.59375 47.796875 60.59375 
Q 36.578125 60.59375 30.5 54.3125 
Q 24.421875 48.046875 24.421875 36.375 
Q 24.421875 24.8125 30.28125 18.5 
Q 36.140625 12.203125 46.921875 12.203125 
Q 49.859375 12.203125 52.375 12.5625 
Q 54.890625 12.9375 56.890625 13.71875 
L 56.890625 27.875 
L 45.40625 27.875 
L 45.40625 40.484375 
L 74.703125 40.484375 
z
" id="DejaVuSans-Bold-71"/>
    </defs>
    <g transform="translate(568.331118 914.034201)rotate(-228.63367)scale(0.14 -0.14)">
     <use xlink:href="#DejaVuSans-Bold-80"/>
     <use x="73.291016" xlink:href="#DejaVuSans-Bold-71"/>
     <use x="155.371094" xlink:href="#DejaVuSans-Bold-58"/>
     <use x="195.361328" xlink:href="#DejaVuSans-Bold-32"/>
     <use x="230.175781" xlink:href="#DejaVuSans-Bold-55"/>
    </g>
   </g>
   <g id="text_23">
    <!-- PI: 18 -->
    <defs>
     <path d="M 9.1875 72.90625 
L 27.984375 72.90625 
L 27.984375 0 
L 9.1875 0 
z
" id="DejaVuSans-Bold-73"/>
    </defs>
    <g transform="translate(600.247198 936.601464)rotate(-237.544561)scale(0.14 -0.14)">
     <use xlink:href="#DejaVuSans-Bold-80"/>
     <use x="73.291016" xlink:href="#DejaVuSans-Bold-73"/>
     <use x="110.498047" xlink:href="#DejaVuSans-Bold-58"/>
     <use x="150.488281" xlink:href="#DejaVuSans-Bold-32"/>
     <use x="185.302734" xlink:href="#DejaVuSans-Bold-49"/>
     <use x="254.882812" xlink:href="#DejaVuSans-Bold-56"/>
    </g>
   </g>
   <g id="text_24">
    <!-- LPC: 30 -->
    <g transform="translate(669.797593 961.116162)rotate(-254.653471)scale(0.14 -0.14)">
     <use xlink:href="#DejaVuSans-Bold-76"/>
     <use x="63.720703" xlink:href="#DejaVuSans-Bold-80"/>
     <use x="137.011719" xlink:href="#DejaVuSans-Bold-67"/>
     <use x="210.400391" xlink:href="#DejaVuSans-Bold-58"/>
     <use x="250.390625" xlink:href="#DejaVuSans-Bold-32"/>
     <use x="285.205078" xlink:href="#DejaVuSans-Bold-51"/>
     <use x="354.785156" xlink:href="#DejaVuSans-Bold-48"/>
    </g>
   </g>
   <g id="text_25">
    <!-- LPE: 16 -->
    <g transform="translate(738.606378 971.210861)rotate(-271.049511)scale(0.14 -0.14)">
     <use xlink:href="#DejaVuSans-Bold-76"/>
     <use x="63.720703" xlink:href="#DejaVuSans-Bold-80"/>
     <use x="137.011719" xlink:href="#DejaVuSans-Bold-69"/>
     <use x="205.322266" xlink:href="#DejaVuSans-Bold-58"/>
     <use x="245.3125" xlink:href="#DejaVuSans-Bold-32"/>
     <use x="280.126953" xlink:href="#DejaVuSans-Bold-49"/>
     <use x="349.707031" xlink:href="#DejaVuSans-Bold-54"/>
    </g>
   </g>
   <g id="text_26">
    <!-- CAR: 27 -->
    <g transform="translate(802.639374 960.864183)rotate(-286.376244)scale(0.14 -0.14)">
     <use xlink:href="#DejaVuSans-Bold-67"/>
     <use x="73.388672" xlink:href="#DejaVuSans-Bold-65"/>
     <use x="150.78125" xlink:href="#DejaVuSans-Bold-82"/>
     <use x="227.783203" xlink:href="#DejaVuSans-Bold-58"/>
     <use x="267.773438" xlink:href="#DejaVuSans-Bold-32"/>
     <use x="302.587891" xlink:href="#DejaVuSans-Bold-50"/>
     <use x="372.167969" xlink:href="#DejaVuSans-Bold-55"/>
    </g>
   </g>
   <g id="text_27">
    <!-- TG: 1029 -->
    <defs>
     <path d="M 0.484375 72.90625 
L 67.671875 72.90625 
L 67.671875 58.6875 
L 43.5 58.6875 
L 43.5 0 
L 24.703125 0 
L 24.703125 58.6875 
L 0.484375 58.6875 
z
" id="DejaVuSans-Bold-84"/>
    </defs>
    <g transform="translate(545.806977 402.116662)rotate(-23.701662)scale(0.18 -0.18)">
     <use xlink:href="#DejaVuSans-Bold-84"/>
     <use x="68.212891" xlink:href="#DejaVuSans-Bold-71"/>
     <use x="150.292969" xlink:href="#DejaVuSans-Bold-58"/>
     <use x="190.283203" xlink:href="#DejaVuSans-Bold-32"/>
     <use x="225.097656" xlink:href="#DejaVuSans-Bold-49"/>
     <use x="294.677734" xlink:href="#DejaVuSans-Bold-48"/>
     <use x="364.257812" xlink:href="#DejaVuSans-Bold-50"/>
     <use x="433.837891" xlink:href="#DejaVuSans-Bold-57"/>
    </g>
   </g>
   <g id="text_28">
    <!-- DG:  88 -->
    <defs>
     <path d="M 27.984375 58.6875 
L 27.984375 14.203125 
L 34.71875 14.203125 
Q 46.234375 14.203125 52.3125 19.921875 
Q 58.40625 25.640625 58.40625 36.53125 
Q 58.40625 47.359375 52.34375 53.015625 
Q 46.296875 58.6875 34.71875 58.6875 
z
M 9.1875 72.90625 
L 29 72.90625 
Q 45.609375 72.90625 53.734375 70.53125 
Q 61.859375 68.171875 67.671875 62.5 
Q 72.796875 57.5625 75.28125 51.109375 
Q 77.78125 44.671875 77.78125 36.53125 
Q 77.78125 28.265625 75.28125 21.796875 
Q 72.796875 15.328125 67.671875 10.40625 
Q 61.8125 4.734375 53.609375 2.359375 
Q 45.40625 0 29 0 
L 9.1875 0 
z
" id="DejaVuSans-Bold-68"/>
    </defs>
    <g transform="translate(565.785267 1062.303119)rotate(-147.12708)scale(0.18 -0.18)">
     <use xlink:href="#DejaVuSans-Bold-68"/>
     <use x="83.007812" xlink:href="#DejaVuSans-Bold-71"/>
     <use x="165.087891" xlink:href="#DejaVuSans-Bold-58"/>
     <use x="205.078125" xlink:href="#DejaVuSans-Bold-32"/>
     <use x="239.892578" xlink:href="#DejaVuSans-Bold-32"/>
     <use x="274.707031" xlink:href="#DejaVuSans-Bold-56"/>
     <use x="344.287109" xlink:href="#DejaVuSans-Bold-56"/>
    </g>
   </g>
   <g id="text_29">
    <!-- CE:  7 -->
    <g transform="translate(621.982109 1084.885005)rotate(-157.624318)scale(0.18 -0.18)">
     <use xlink:href="#DejaVuSans-Bold-67"/>
     <use x="73.388672" xlink:href="#DejaVuSans-Bold-69"/>
     <use x="141.699219" xlink:href="#DejaVuSans-Bold-58"/>
     <use x="181.689453" xlink:href="#DejaVuSans-Bold-32"/>
     <use x="216.503906" xlink:href="#DejaVuSans-Bold-32"/>
     <use x="251.318359" xlink:href="#DejaVuSans-Bold-55"/>
    </g>
   </g>
   <g id="text_30">
    <!-- Polar Lipids: 505 -->
    <g transform="translate(1019.176571 989.419286)rotate(-214.198904)scale(0.18 -0.18)">
     <use xlink:href="#DejaVuSans-Bold-80"/>
     <use x="73.291016" xlink:href="#DejaVuSans-Bold-111"/>
     <use x="141.992188" xlink:href="#DejaVuSans-Bold-108"/>
     <use x="176.269531" xlink:href="#DejaVuSans-Bold-97"/>
     <use x="243.75" xlink:href="#DejaVuSans-Bold-114"/>
     <use x="293.066406" xlink:href="#DejaVuSans-Bold-32"/>
     <use x="327.880859" xlink:href="#DejaVuSans-Bold-76"/>
     <use x="391.601562" xlink:href="#DejaVuSans-Bold-105"/>
     <use x="425.878906" xlink:href="#DejaVuSans-Bold-112"/>
     <use x="497.460938" xlink:href="#DejaVuSans-Bold-105"/>
     <use x="531.738281" xlink:href="#DejaVuSans-Bold-100"/>
     <use x="603.320312" xlink:href="#DejaVuSans-Bold-115"/>
     <use x="662.841797" xlink:href="#DejaVuSans-Bold-58"/>
     <use x="702.832031" xlink:href="#DejaVuSans-Bold-32"/>
     <use x="737.646484" xlink:href="#DejaVuSans-Bold-53"/>
     <use x="807.226562" xlink:href="#DejaVuSans-Bold-48"/>
     <use x="876.806641" xlink:href="#DejaVuSans-Bold-53"/>
    </g>
   </g>
  </g>
 </g>
</svg>
